<?xml version="1.0" encoding="UTF-8"?>
<svg id="Layer_2" data-name="Layer 2" xmlns="http://www.w3.org/2000/svg" viewBox="0 0 112.09 57.6">
  <defs>
    <style>
      .cls-1 {
        fill: #102438;
      }

      .cls-1, .cls-2 {
        strokeWidth: 0px;
      }

      .cls-2 {
        fill: #e71d73;
      }
    </style>
  </defs>
  <path class="cls-1" d="M79.26,28.73v5.43h-2.02v-5.43c0-2.11-.89-3.1-2.46-3.1s-2.46.99-2.46,3.1v5.43h-2.02v-5.43c0-2.11-.89-3.1-2.46-3.1s-2.46.99-2.46,3.1v5.43h-2.02v-5.43c0-3.47,1.9-5.06,4.48-5.06,1.48,0,2.79.62,3.47,1.92.68-1.3,1.98-1.92,3.47-1.92,2.58,0,4.48,1.59,4.48,5.06"/>
  <path class="cls-1" d="M79.81,29c0-2.95,2.4-5.33,5.33-5.33s5.31,2.37,5.31,5.33v5.16h-2.02v-1.63c-.5,1.01-1.82,1.8-3.28,1.8-2.93,0-5.33-2.37-5.33-5.33M88.44,29c0-1.88-1.38-3.37-3.28-3.37s-3.33,1.49-3.33,3.37,1.45,3.37,3.33,3.37,3.28-1.49,3.28-3.37"/>
  <path class="cls-1" d="M91.31,28.77c0-3.43,1.84-4.98,4.33-4.98h.21v1.96h-.21c-1.44,0-2.31.93-2.31,3.02v5.39h-2.02v-5.39Z"/>
  <polygon class="cls-1" points="96.68 19.71 98.7 19.71 98.7 27.76 102.73 23.84 105.31 23.84 101.34 27.78 105.99 34.16 103.74 34.16 99.96 29.06 98.7 30.28 98.7 34.16 96.68 34.16 96.68 19.71"/>
  <path class="cls-1" d="M109,32.99c0,.64-.52,1.15-1.15,1.15s-1.15-.52-1.15-1.15.52-1.15,1.15-1.15,1.15.52,1.15,1.15"/>
  <path class="cls-1" d="M12.51,35.05c-.26-.23-.43-.54-.51-.88-.03-.12-.04-.24-.04-.36v-3.64h-2.17v3.64c0,.12,0,.25.02.37.09.94.53,1.83,1.24,2.47l1.09.99,1.46-1.61-1.09-.99Z"/>
  <path class="cls-2" d="M66.51,36.84c1.42,0,2.57.88,2.57,1.96s-1.15,1.96-2.57,1.96c-.67,0-1.21-.21-1.57-.55v2.01h-.99v-3.43c0-1.09,1.15-1.96,2.56-1.96M68.11,38.81c0-.69-.68-1.24-1.6-1.24s-1.6.55-1.6,1.24.7,1.24,1.6,1.24,1.6-.55,1.6-1.24"/>
  <path class="cls-2" d="M69.63,38.72c0-1.26.89-1.84,2.09-1.84h.1v.72h-.1c-.7,0-1.12.34-1.12,1.11v1.99h-.98v-1.99Z"/>
  <path class="cls-2" d="M77.22,38.81c0,1.09-1.15,1.96-2.57,1.96s-2.57-.88-2.57-1.96,1.14-1.96,2.57-1.96,2.57.88,2.57,1.96M73.05,38.81c0,.69.7,1.24,1.61,1.24s1.59-.55,1.59-1.24-.67-1.24-1.59-1.24-1.61.55-1.61,1.24"/>
  <path class="cls-2" d="M79.04,37.63v1.28c0,.73.37,1.06,1.08,1.1v.72c-1.2-.04-2.04-.59-2.05-1.82v-1.29h-.74v-.72h.74v-1.36h.98v1.36h1.08v.72h-1.08Z"/>
  <path class="cls-2" d="M82.94,36.84c1.29,0,2.52.72,2.57,1.89,0,.13-.01.25-.03.34h-4.03c.08.56.68.97,1.48.97.55,0,.94-.17,1.2-.38h1.17c-.43.66-1.33,1.1-2.33,1.1-1.44,0-2.56-.88-2.56-1.95s1.1-1.97,2.53-1.97M84.47,38.47c-.18-.52-.78-.91-1.49-.91-.78,0-1.34.39-1.52.91h3.01Z"/>
  <path class="cls-2" d="M86.01,38.81c0-1.09,1.15-1.96,2.57-1.96,1.1,0,2.02.53,2.37,1.26h-1.05c-.28-.32-.75-.53-1.32-.53-.92,0-1.61.55-1.61,1.24s.7,1.24,1.61,1.24c.56,0,1.02-.21,1.3-.52h1.07c-.36.73-1.29,1.24-2.37,1.24-1.43,0-2.57-.88-2.57-1.96"/>
  <path class="cls-2" d="M92.99,37.63v1.28c0,.73.37,1.06,1.08,1.1v.72c-1.2-.04-2.04-.59-2.05-1.82v-1.29h-.74v-.72h.74v-1.36h.98v1.36h1.08v.72h-1.08Z"/>
  <path class="cls-2" d="M94.53,35.92c0-.26.26-.45.6-.45s.59.2.59.45-.26.46-.59.46-.6-.2-.6-.46M94.65,36.91h.98v3.81h-.98v-3.81Z"/>
  <path class="cls-2" d="M101.41,38.81c0,1.09-1.15,1.96-2.57,1.96s-2.57-.88-2.57-1.96,1.14-1.96,2.57-1.96,2.57.88,2.57,1.96M97.25,38.81c0,.69.7,1.24,1.61,1.24s1.59-.55,1.59-1.24-.67-1.24-1.59-1.24-1.61.55-1.61,1.24"/>
  <path class="cls-2" d="M106.35,40.71h-.98v-2c0-.77-.44-1.14-1.22-1.14s-1.22.37-1.22,1.14v2h-.98v-2c0-1.28.92-1.86,2.19-1.86s2.19.59,2.19,1.86v2Z"/>
  <path class="cls-2" d="M26.92,23.84v5.43c0,3.47-1.9,5.06-4.54,5.06s-4.54-1.59-4.54-5.06v-5.43h2.02v5.43c0,2.11.91,3.1,2.52,3.1s2.52-.99,2.52-3.1v-5.43h2.02Z"/>
  <path class="cls-2" d="M27.48,29c0-2.95,2.4-5.33,5.33-5.33s5.31,2.37,5.31,5.33v5.16h-2.02v-1.63c-.5,1.01-1.81,1.8-3.28,1.8-2.93,0-5.33-2.37-5.33-5.33M36.11,29c0-1.88-1.38-3.37-3.28-3.37s-3.33,1.49-3.33,3.37,1.45,3.37,3.33,3.37,3.28-1.49,3.28-3.37"/>
  <rect class="cls-2" x="38.97" y="19.71" width="2.02" height="14.45"/>
  <path class="cls-2" d="M42.65,21.17c0-.7.54-1.24,1.24-1.24s1.22.54,1.22,1.24-.54,1.24-1.22,1.24-1.24-.54-1.24-1.24M42.88,23.83h2.02v10.32h-2.02v-10.32Z"/>
  <path class="cls-2" d="M50.07,25.8v3.47c0,1.96.76,2.87,2.23,2.99v1.96c-2.48-.1-4.23-1.61-4.25-4.93v-3.49h-4.48v-1.96h4.48v-3.69h2.02v3.69h2.23v1.96h-2.23Z"/>
  <path class="cls-2" d="M53.56,35.09h2.27c.43.72,1.09,1.24,2.13,1.24,1.59,0,2.5-1.05,2.5-2.44v-.56c-.58.62-1.49.99-2.5.99-2.64,0-4.54-1.59-4.54-5.06v-5.43h2.02v5.43c0,2.1.91,3.1,2.52,3.1s2.52-.97,2.52-2.97v-5.55h2.02v9.81c0,2.64-1.9,4.65-4.54,4.65-2.13,0-3.7-1.3-4.4-3.2"/>
  <path class="cls-2" d="M17.01,28.16c0-3.37-2.74-6.12-6.12-6.12s-6.12,2.75-6.12,6.12c0,3.01,2.18,5.51,5.04,6.02-.01-.12-.02-.25-.02-.37v-1.86c-1.64-.48-2.85-1.99-2.85-3.79,0-2.18,1.77-3.94,3.94-3.94s3.95,1.77,3.95,3.94c0,1.8-1.21,3.32-2.87,3.79v1.86c0,.12.02.25.04.36,2.84-.53,5-3.02,5-6.01"/>
</svg>