<?xml version="1.0" encoding="UTF-8"?>
<svg version="1.1" xmlns="http://www.w3.org/2000/svg" width="113" height="113">
<path d="M0 0 C13.47632625 10.9427609 21.1459894 24.63283948 23 42 C23.08789696 58.92895414 18.66754277 74.03881982 6.9375 86.75 C-5.03437752 98.00561135 -20.24802941 103.46125343 -36.5546875 103.27734375 C-53.60196385 101.90505733 -67.83877734 94.71488031 -79.00390625 81.65625 C-89.43214879 67.78195755 -91.14458811 52.75958344 -90 36 C-87.64699293 22.02370501 -79.85410836 9.93685845 -69 1 C-62.47918095 -3.51179386 -55.71581341 -7.07474905 -48 -9 C-47.2678125 -9.18304688 -46.535625 -9.36609375 -45.78125 -9.5546875 C-29.50808068 -12.16022304 -13.690099 -9.32442363 0 0 Z M-70.84765625 16.25390625 C-79.27368658 27.68539963 -82.03871686 38.89685844 -81 53 C-78.34098747 66.43181188 -71.75701217 77.66911088 -60.6171875 85.72265625 C-49.38781228 92.8862232 -37.15429121 95.34228404 -24.078125 92.77734375 C-10.14449822 89.25857252 0.33842321 81.18516734 8 69 C9.57881899 65.73646562 10.89147339 62.45073605 12 59 C12.19207031 58.40832031 12.38414063 57.81664062 12.58203125 57.20703125 C15.29718575 42.87000049 12.10348225 29.5132048 3.96875 17.53515625 C-3.29087787 8.18694496 -13.89131935 1.28405277 -25.671875 -0.75 C-42.61646587 -2.56955338 -59.80776857 2.78664369 -70.84765625 16.25390625 Z " fill="#7DD4FA" transform="translate(90,10)"/>
<path d="M0 0 C3.93844054 2.83567719 5.60470967 4.68912902 7.125 9.25 C7.83875026 16.4561324 6.48730869 20.94276783 2.25 26.875 C0.125 29.25 0.125 29.25 -2.5 31.1875 C-5.50508936 33.44379813 -5.50508936 33.44379813 -6.875 39.25 C-11.825 39.25 -16.775 39.25 -21.875 39.25 C-21.875 31.36083123 -21.875 31.36083123 -19.1875 28.125 C-18.64222656 27.45597656 -18.09695312 26.78695312 -17.53515625 26.09765625 C-16.12583591 24.52916561 -14.63306964 23.03629533 -13.125 21.5625 C-10.77029067 19.14238208 -9.70986456 17.5059718 -8.875 14.25 C-9.30036285 12.13616238 -9.30036285 12.13616238 -9.875 10.25 C-16.22741924 9.84667179 -20.26522694 10.45140745 -25.9296875 13.375 C-27.875 14.25 -27.875 14.25 -30.875 14.25 C-30.875 9.96 -30.875 5.67 -30.875 1.25 C-21.9051888 -2.66409943 -9.17613123 -4.30716364 0 0 Z " fill="#46C9FB" transform="translate(69.875,26.75)"/>
<path d="M0 0 C4.95 0 9.9 0 15 0 C15 4.95 15 9.9 15 15 C10.05 15 5.1 15 0 15 C0 10.05 0 5.1 0 0 Z " fill="#3FCBFD" transform="translate(48,71)"/>
<path d="M0 0 C0.33 0 0.66 0 1 0 C1 2.97 1 5.94 1 9 C5.62 9 10.24 9 15 9 C15 10.98 15 12.96 15 15 C10.05 15 5.1 15 0 15 C0 10.05 0 5.1 0 0 Z " fill="#4CC6F5" transform="translate(48,71)"/>
<path d="M0 0 C0.66 0 1.32 0 2 0 C2 1.32 2 2.64 2 4 C3.98 4 5.96 4 8 4 C8 4.66 8 5.32 8 6 C12.29 6.33 16.58 6.66 21 7 C21.33 8.32 21.66 9.64 22 11 C21.67 10.34 21.34 9.68 21 9 C14.64758076 8.59667179 10.60977306 9.20140745 4.9453125 12.125 C3 13 3 13 0 13 C0 8.71 0 4.42 0 0 Z " fill="#4DC9EE" transform="translate(39,28)"/>
<path d="M0 0 C3 1 3 1 4 3 C6.01669827 4.13350534 6.01669827 4.13350534 8 5 C6.35 6.65 4.7 8.3 3 10 C2.67 8.68 2.34 7.36 2 6 C0.68 5.67 -0.64 5.34 -2 5 C-2 3.68 -2 2.36 -2 1 C-1.34 0.67 -0.68 0.34 0 0 Z " fill="#54C2FD" transform="translate(65,47)"/>
<path d="M0 0 C2.375 0.25 2.375 0.25 5 1 C6.3125 3.0625 6.3125 3.0625 7 5 C4.69 4.34 2.38 3.68 0 3 C0 2.01 0 1.02 0 0 Z " fill="#71D9FB" transform="translate(88,12)"/>
<path d="M0 0 C1.32 0.33 2.64 0.66 4 1 C3.37755401 2.27208622 2.75193233 3.54261882 2.125 4.8125 C1.77695313 5.52019531 1.42890625 6.22789063 1.0703125 6.95703125 C0 9 0 9 -2 12 C-1.44687265 7.97007218 -0.8441938 3.97977076 0 0 Z " fill="#87D2EE" transform="translate(12,32)"/>
<path d="M0 0 C0.66 0 1.32 0 2 0 C4.4294516 3.6441774 4.16179575 5.71241272 4 10 C1.81024227 6.71536341 1.00193437 3.79303725 0 0 Z " fill="#86D2EB" transform="translate(98,34)"/>
<path d="M0 0 C2.97 0.99 5.94 1.98 9 3 C9 3.33 9 3.66 9 4 C6.36 3.67 3.72 3.34 1 3 C0.67 2.01 0.34 1.02 0 0 Z " fill="#81D6E6" transform="translate(72,2)"/>
<path d="M0 0 C0.99 0.33 1.98 0.66 3 1 C-0.465 3.97 -0.465 3.97 -4 7 C-4.66 6.67 -5.32 6.34 -6 6 C-4 4 -2 2 0 0 Z " fill="#8ACFEE" transform="translate(93,96)"/>
<path d="M0 0 C2.9375 0.375 2.9375 0.375 6 1 C6.33 1.66 6.66 2.32 7 3 C4.69 3 2.38 3 0 3 C0 2.01 0 1.02 0 0 Z " fill="#4ACDE6" transform="translate(66,27)"/>
<path d="M0 0 C0.66 0 1.32 0 2 0 C1.67 1.32 1.34 2.64 1 4 C1.66 4 2.32 4 3 4 C3 4.66 3 5.32 3 6 C1.68 6 0.36 6 -1 6 C-1.042721 4.33388095 -1.04063832 2.66617115 -1 1 C-0.67 0.67 -0.34 0.34 0 0 Z " fill="#8ACEF7" transform="translate(33,4)"/>
</svg>
