<svg xmlns="http://www.w3.org/2000/svg" viewBox="0 0 512 512">
  <defs fill="#439a5a"/>
  <ellipse style="stroke: #ffffff; paint-order: fill; fill: #ffffff;" cx="262.12" cy="259.314" rx="192.765" ry="154.773"/>
  <path d="M504 256c0 136.967-111.033 248-248 248S8 392.967 8 256 119.033 8 256 8s248 111.033 248 248zM227.314 387.314l184-184c6.248-6.248 6.248-16.379 0-22.627l-22.627-22.627c-6.248-6.249-16.379-6.249-22.628 0L216 308.118l-70.059-70.059c-6.248-6.248-16.379-6.248-22.628 0l-22.627 22.627c-6.248 6.248-6.248 16.379 0 22.627l104 104c6.249 6.249 16.379 6.249 22.628.001z" fill="#0066ff"/>
</svg>