<svg version="1.2" xmlns="http://www.w3.org/2000/svg" viewBox="0 0 100 100" width="100" height="100">
	<title>CES-Solar-Shop-Logo-MASTER-ai</title>
	<style>
		.s0 { fill: #5d6166 } 
		.s1 { fill: #1975bb } 
		.s2 { fill: #00adee } 
		.s3 { fill: #26aae1 } 
		.s4 { fill: #35c1ef } 
		.s5 { fill: #2558a7 } 
	</style>
	<g id="Layer 1">
		<g id="&lt;Group&gt;">
			<g id="&lt;Group&gt;">
				<g id="&lt;Group&gt;">
					<path id="&lt;Compound Path&gt;" class="s0" d="m140.4 5.8c3.2 0 8.5 1.4 8.5 4.8v1.9h-2.1v-1.3c0-2.1-3.7-3.2-6.3-3.2-5.1 0-8.9 3.9-8.9 9.4 0 5.4 3.8 9.7 9 9.7 4.6 0 7.4-3.2 7.4-3.2l1.3 1.7c0 0-3.1 3.7-8.8 3.7-6.6 0-11.3-5.3-11.3-11.9 0-6.6 4.8-11.6 11.2-11.6z"/>
				</g>
				<g id="&lt;Group&gt;">
					<path id="&lt;Compound Path&gt;" fill-rule="evenodd" class="s0" d="m160.8 10.1c5.2 0 9.3 4.1 9.3 9.4 0 5.4-4.1 9.7-9.3 9.7-5.3 0-9.4-4.3-9.4-9.7 0-5.3 4.1-9.4 9.4-9.4zm0 17.4c4.1 0 7.4-3.5 7.4-8 0-4.3-3.3-7.6-7.4-7.6-4.2 0-7.5 3.3-7.5 7.6 0 4.5 3.3 8 7.5 8z"/>
					<path id="&lt;Compound Path&gt;" class="s0" d="m172.2 27.2h1.2q0.5 0.1 0.5-0.5v-16.3h1.7l9.4 13.2c0.7 0.9 1.5 2.4 1.5 2.4h0.1c0 0-0.2-1.5-0.2-2.4v-11.6c0-1.1 0.5-1.6 1.6-1.6h2v1.7h-1.1q-0.6 0-0.6 0.5v16.3h-1.7l-9.4-13.2c-0.7-0.9-1.5-2.4-1.5-2.4h-0.1c0 0 0.2 1.5 0.2 2.4v11.6c0 1.1-0.5 1.6-1.6 1.6h-2z"/>
					<path id="&lt;Compound Path&gt;" class="s0" d="m193.2 25.2c0 0 1.8 2.3 4.7 2.3 2 0 3.7-1.3 3.7-3.3 0-4.6-9.1-3.6-9.1-9.4 0-2.5 2.2-4.7 5.6-4.7 1.8 0 5 0.8 5 3.2v1.3h-1.7v-0.9c0-1.1-1.6-1.9-3.3-1.9-2.3 0-3.7 1.4-3.7 3 0 4.3 9.1 3.2 9.1 9.3 0 2.8-2.2 5.1-5.6 5.1-3.8 0-5.9-2.6-5.9-2.6z"/>
					<path id="&lt;Compound Path&gt;" class="s0" d="m207.2 12.6q0-0.5-0.5-0.5h-1.2v-1.7h2c1.1 0 1.6 0.5 1.6 1.6v10.5c0 3 1.9 5 4.9 5 3.1 0 5-2 5-5.1v-10.4c0-1.1 0.5-1.6 1.6-1.6h2v1.7h-1.2q-0.5 0-0.5 0.5v10c0 3.9-2.8 6.6-6.8 6.6-4.1 0-6.9-2.7-6.9-6.6z"/>
					<path id="&lt;Compound Path&gt;" class="s0" d="m224 27.2h1q0.5 0.1 0.6-0.5l1.3-16.3h1.8l4.9 10.8c0.4 0.9 0.9 2.1 0.9 2.1h0.1c0 0 0.4-1.2 0.9-2.1l4.8-10.8h1.9l1.3 16.3q0 0.6 0.6 0.5h1v1.7h-1.8c-1.1 0-1.5-0.5-1.6-1.6l-0.9-11.2c-0.1-1-0.1-2.6-0.1-2.6 0 0-0.5 1.6-1 2.6l-4.3 9.3h-1.7l-4.3-9.3c-0.5-0.9-1-2.6-1-2.6h-0.1c0 0 0 1.6 0 2.6l-0.9 11.2c-0.1 1.1-0.5 1.6-1.6 1.6h-1.8z"/>
					<path id="&lt;Compound Path&gt;" class="s0" d="m248.4 12.1h-1.7v-1.7h10.6c1.1 0 1.6 0.5 1.6 1.6v1.9h-1.8v-1.3q0-0.5-0.5-0.5h-6.3v6.7h6.9v1.6h-6.9v6.3q0 0.6 0.5 0.5h6.5q0.6 0.1 0.6-0.5v-1.3h1.7v1.9c0 1.1-0.5 1.6-1.6 1.6h-8c-1.1 0-1.6-0.5-1.6-1.6z"/>
					<path id="&lt;Compound Path&gt;" fill-rule="evenodd" class="s0" d="m263.1 12.1h-1.7v-1.7h7.8c3.1 0 5.3 2.1 5.3 5.3 0 2.8-1.8 4.5-3.6 4.9v0.1c0 0 0.4 0.2 0.6 0.7l2.7 5.2c0.2 0.6 0.6 0.6 1.3 0.6h0.4v1.7h-0.9c-1.4 0-1.9-0.2-2.5-1.4l-2.6-5.3c-0.5-1-0.9-1.1-1.9-1.1h-3.1v7.8h-1.8zm5.9 7.4c2.2 0 3.6-1.4 3.6-3.8 0-2.2-1.4-3.6-3.6-3.6h-4.1v7.4z"/>
				</g>
				<g id="&lt;Group&gt;">
					<path id="&lt;Compound Path&gt;" class="s0" d="m131.4 39.7h-2v-2h12.9c1.4 0 2 0.6 2 2v2.3h-2.1v-1.5c0-0.5-0.3-0.8-0.8-0.8h-7.7v8.3h8.5v2h-8.5v7.7c0 0.5 0.3 0.7 0.7 0.7h8c0.4 0 0.7-0.2 0.7-0.7v-1.5h2.1v2.2c0 1.4-0.6 2-2 2h-9.8c-1.4 0-2-0.6-2-2z"/>
				</g>
				<g id="&lt;Group&gt;">
					<path id="&lt;Compound Path&gt;" class="s0" d="m147.1 58.8h1.1q0.6 0 0.6-0.6v-16.2h1.7l9.4 13.1c0.6 0.9 1.5 2.4 1.5 2.4 0 0-0.1-1.4-0.1-2.4v-11.5c0-1.2 0.5-1.6 1.6-1.6h1.9v1.6h-1.1q-0.5 0-0.6 0.6v16.2h-1.6l-9.5-13.1c-0.6-0.9-1.5-2.4-1.5-2.4 0 0 0.1 1.4 0.1 2.4v11.5c0 1.1-0.4 1.6-1.6 1.6h-1.9z"/>
					<path id="&lt;Compound Path&gt;" class="s0" d="m168.7 43.6h-1.7v-1.6h10.6c1.1 0 1.6 0.4 1.6 1.6v1.8h-1.8v-1.2q0-0.6-0.5-0.6h-6.3v6.7h6.9v1.6h-6.9v6.3q0 0.6 0.5 0.6h6.5q0.6 0 0.6-0.6v-1.2h1.7v1.8c0 1.1-0.5 1.6-1.6 1.6h-8c-1.1 0-1.6-0.5-1.6-1.6z"/>
					<path id="&lt;Compound Path&gt;" fill-rule="evenodd" class="s0" d="m183.4 43.6h-1.7v-1.6h7.8c3.1 0 5.3 2 5.3 5.2 0 2.9-1.8 4.6-3.6 5 0 0 0.4 0.2 0.6 0.7l2.7 5.3c0.3 0.5 0.6 0.6 1.3 0.6h0.4v1.6h-0.8c-1.5 0-2-0.2-2.6-1.4l-2.6-5.2c-0.5-1-0.9-1.1-1.9-1.1h-3.1v7.7h-1.8zm5.9 7.4c2.2 0 3.6-1.4 3.6-3.7 0-2.3-1.4-3.7-3.6-3.7h-4.1v7.4z"/>
					<path id="&lt;Compound Path&gt;" class="s0" d="m206.7 41.7c4.2 0 6.4 2.2 6.4 2.2l-1.1 1.4c0 0-2-1.9-5.3-1.9-4.2 0-7.3 3.3-7.3 7.8 0 4.5 3.1 7.8 7.3 7.8 3.6 0 5.8-2.7 5.8-2.7v-2.3q0-0.6-0.6-0.6h-1.1v-1.6h1.8c1.1 0 1.6 0.5 1.6 1.6v7h-1.7v-1.4c0-0.4 0.1-0.8 0.1-0.8h-0.1c0 0-2.1 2.5-6 2.5-5.1 0-9-4-9-9.5 0-5.3 3.9-9.5 9.2-9.5z"/>
					<path id="&lt;Compound Path&gt;" class="s0" d="m222.4 52.4l-4.9-8.1c-0.3-0.6-0.7-0.7-1.2-0.7h-0.5v-1.6h0.8c1.2 0 1.7 0.2 2.5 1.4l3.1 5.3c0.6 0.9 1.1 2 1.1 2h0.1c0 0 0.5-1.1 1.1-2l3.1-5.3c0.8-1.2 1.3-1.4 2.5-1.4h0.7v1.6h-0.4c-0.5 0-0.9 0.1-1.2 0.7l-4.9 8.1v8h-1.9z"/>
				</g>
				<g id="&lt;Group&gt;">
					<path id="&lt;Compound Path&gt;" class="s0" d="m240.8 55.9c0 0 2.3 2.8 5.9 2.8 2.5 0 4.5-1.6 4.5-4 0-5.6-11.2-4.5-11.2-11.5 0-3.2 2.7-5.8 6.9-5.8 2.2 0 6.1 0.9 6.1 3.9v1.6h-2.1v-1.1c0-1.3-1.9-2.3-4-2.3-2.9 0-4.6 1.7-4.6 3.6 0 5.3 11.2 4 11.2 11.4 0 3.4-2.6 6.3-6.9 6.3-4.6 0-7.2-3.2-7.2-3.2z"/>
				</g>
				<g id="&lt;Group&gt;">
					<path id="&lt;Compound Path&gt;" fill-rule="evenodd" class="s0" d="m265.3 41.7c5.3 0 9.4 4.1 9.4 9.4 0 5.4-4.1 9.6-9.4 9.6-5.2 0-9.4-4.2-9.4-9.6 0-5.3 4.2-9.4 9.4-9.4zm0 17.3c4.1 0 7.5-3.5 7.5-7.9 0-4.4-3.4-7.7-7.5-7.7-4.1 0-7.4 3.3-7.4 7.7 0 4.4 3.3 7.9 7.4 7.9z"/>
					<path id="&lt;Compound Path&gt;" class="s0" d="m278.5 44.2q0-0.6-0.6-0.6h-1.1v-1.6h1.9c1.2 0 1.6 0.4 1.6 1.6v14.6q0 0.6 0.6 0.6h6.1q0.6 0 0.6-0.6v-1.2h1.7v1.8c0 1.1-0.4 1.6-1.6 1.6h-7.6c-1.1 0-1.6-0.5-1.6-1.6z"/>
					<path id="&lt;Compound Path&gt;" class="s0" d="m292.2 44.2q0-0.6-0.6-0.6h-1.1v-1.6h1.9c1.2 0 1.6 0.4 1.6 1.6v10.4c0 3.1 2 5 5 5 3 0 5-1.9 5-5v-10.4c0-1.2 0.4-1.6 1.6-1.6h1.9v1.6h-1.1q-0.6 0-0.6 0.6v9.9c0 4-2.7 6.6-6.8 6.6-4.1 0-6.8-2.6-6.8-6.6z"/>
					<path id="&lt;Compound Path&gt;" class="s0" d="m315.6 43.6h-4.5c-0.4 0-0.6 0.2-0.6 0.6v1.2h-1.7v-1.9c0-1.2 0.4-1.5 1.5-1.5h12.5c1.1 0 1.5 0.3 1.5 1.5v1.9h-1.7v-1.2c0-0.4-0.2-0.6-0.6-0.6h-4.5v16.8h-1.9z"/>
					<path id="&lt;Compound Path&gt;" class="s0" d="m325.9 58.8h1.7v-15.2h-1.7v-1.6h5.2v1.6h-1.7v15.2h1.7v1.6h-5.2z"/>
					<path id="&lt;Compound Path&gt;" fill-rule="evenodd" class="s0" d="m342.7 41.7c5.3 0 9.4 4.1 9.4 9.4 0 5.4-4.1 9.6-9.4 9.6-5.2 0-9.4-4.2-9.4-9.6 0-5.3 4.2-9.4 9.4-9.4zm0 17.3c4.2 0 7.5-3.5 7.5-7.9 0-4.4-3.3-7.7-7.5-7.7-4.1 0-7.4 3.3-7.4 7.7 0 4.4 3.3 7.9 7.4 7.9z"/>
					<path id="&lt;Compound Path&gt;" class="s0" d="m354.2 58.8h1.1q0.6 0 0.6-0.6v-16.2h1.7l9.4 13.1c0.6 0.9 1.5 2.4 1.5 2.4h0.1c0 0-0.2-1.4-0.2-2.4v-11.5c0-1.2 0.5-1.6 1.6-1.6h2v1.6h-1.2q-0.5 0-0.5 0.6v16.2h-1.7l-9.4-13.1c-0.7-0.9-1.6-2.4-1.6-2.4 0 0 0.1 1.4 0.1 2.4v11.5c0 1.1-0.4 1.6-1.6 1.6h-1.9z"/>
					<path id="&lt;Compound Path&gt;" class="s0" d="m375.1 56.8c0 0 1.9 2.2 4.8 2.2 2 0 3.7-1.3 3.7-3.3 0-4.5-9.1-3.6-9.1-9.3 0-2.6 2.2-4.7 5.6-4.7 1.8 0 5 0.7 5 3.1v1.3h-1.8v-0.8c0-1.1-1.5-1.9-3.2-1.9-2.4 0-3.8 1.4-3.8 2.9 0 4.3 9.1 3.3 9.1 9.3 0 2.8-2.1 5.1-5.5 5.1-3.8 0-5.9-2.6-5.9-2.6z"/>
				</g>
				<g id="&lt;Group&gt;">
					<g id="&lt;Group&gt;">
						<g id="&lt;Group&gt;">
							<g id="&lt;Group&gt;">
								<path id="&lt;Path&gt;" class="s1" d="m6.9 39.3c-5.3 16.3 4.3 25.2 13.9 28.4q0 0 0.1 0 0 0 0 0 0 0 0 0 1.9 0.6 3.5 0.4c3.9-0.2 7.4-2.7 8.6-6.6 1.7-5.1-1.1-10.6-6.2-12.2q0 0 0 0 0 0 0 0c-10-3.3-13.6-12.1-10.1-22.7 2-6.1 5.3-11.9 9.2-16.2-8.3 7.7-16.2 20.2-19 28.9z"/>
							</g>
							<path id="&lt;Path&gt;" class="s2" d="m26.8 49.3q0 0 0 0c-0.7-0.3-3.6-1.2-4.3-1.5-6.6-2.1-11.5-7.1-13.8-13.1q-1.1 2.4-1.8 4.6c-5.3 16.3 4.3 25.2 13.9 28.4q0 0 0.1 0 0 0 0 0 0 0 0 0 1.9 0.6 3.5 0.4c3.9-0.2 7.4-2.7 8.6-6.6 1.7-5.1-1.1-10.6-6.2-12.2q0 0 0 0z"/>
						</g>
						<g id="&lt;Group&gt;">
							<path id="&lt;Path&gt;" class="s2" d="m26.7 88.4c13.9 10.1 25.4 3.7 31.3-4.5q0.1 0 0.1 0 0 0 0 0 0 0 0 0 1.1-1.7 1.5-3.2c1-3.8-0.4-7.9-3.7-10.3-4.3-3.2-10.4-2.2-13.5 2.1q0 0 0 0 0 0 0 0c-6.2 8.6-15.7 9.2-24.7 2.6-5.2-3.7-9.6-8.7-12.6-13.7 4.8 10.3 14.3 21.7 21.6 27z"/>
							<path id="&lt;Path&gt;" class="s3" d="m42.4 72.5q0 0 0 0c-0.5 0.7-2.3 3.1-2.7 3.8-4.1 5.6-10.3 8.7-16.7 9q1.9 1.8 3.7 3.1c13.9 10.1 25.4 3.7 31.3-4.5q0.1 0 0.1 0 0 0 0 0 0 0 0 0 1.1-1.7 1.5-3.2c1-3.8-0.4-7.9-3.7-10.3-4.3-3.2-10.4-2.2-13.5 2.1q0 0 0 0z"/>
						</g>
						<g id="&lt;Group&gt;">
							<path id="&lt;Path&gt;" class="s3" d="m79.6 84.7c13.9-10.1 11.3-22.9 5.4-31.2q0 0 0 0 0 0 0 0 0 0 0 0-1.2-1.6-2.6-2.4c-3.3-2.1-7.6-2.1-10.9 0.3-4.4 3.1-5.3 9.2-2.2 13.5q0 0 0 0 0 0 0 0c6.3 8.6 3.9 17.7-5.1 24.3-5.2 3.8-11.3 6.5-17 7.7 11.3-1.3 25-6.8 32.4-12.2z"/>
							<path id="&lt;Path&gt;" class="s4" d="m69.3 64.9q0 0 0 0c0.5 0.7 2.3 3.1 2.7 3.7 4.1 5.6 5.2 12.5 3.5 18.7q2.3-1.3 4.1-2.6c13.9-10.1 11.3-22.9 5.4-31.2q0 0 0 0 0 0 0 0 0 0 0 0-1.2-1.6-2.6-2.4c-3.3-2.1-7.6-2.1-10.9 0.3-4.4 3.1-5.3 9.2-2.2 13.5q0 0 0 0z"/>
						</g>
						<g id="&lt;Group&gt;">
							<g id="&lt;Group&gt;">
								<path id="&lt;Path&gt;" class="s1" d="m92.4 33.3c-5.3-16.3-18.3-17.9-28-14.8q0 0 0 0 0 0 0 0 0 0 0 0-1.9 0.7-3.1 1.8c-3 2.4-4.4 6.5-3.1 10.4 1.7 5.1 7.1 7.9 12.2 6.2q0 0 0 0 0 0 0 0c10.1-3.2 18.1 1.8 21.5 12.4 2 6.1 2.7 12.8 2.1 18.6 2.2-11.2 1.2-25.9-1.6-34.6z"/>
							</g>
							<path id="&lt;Path&gt;" class="s2" d="m70.4 36.9q0 0 0 0c0.8-0.2 3.6-1.1 4.4-1.4 6.6-2.1 13.5-1 18.8 2.5q-0.5-2.6-1.2-4.7c-5.3-16.3-18.3-17.9-28-14.8q0 0 0 0 0 0 0 0 0 0 0 0-1.9 0.7-3.1 1.8c-3 2.4-4.4 6.5-3.1 10.4 1.7 5.1 7.1 7.9 12.2 6.2q0 0 0 0z"/>
						</g>
					</g>
					<path id="&lt;Path&gt;" class="s0" d="m114.5 104.2h-2.7v-109.3h2.7z"/>
					<g id="&lt;Group&gt;">
						<g id="&lt;Group&gt;">
							<path id="&lt;Path&gt;" class="s5" d="m47.5 5.2c-17.2 0-22.7 11.9-22.7 22.1q0 0 0 0 0 0 0 0 0 0 0 0 0 2 0.6 3.5c1.5 3.6 5 6.2 9.1 6.2 5.3 0 9.6-4.4 9.6-9.7q0 0 0 0 0 0 0 0c0-10.6 7.3-16.7 18.5-16.7 6.4 0 12.9 1.4 18.3 3.8-10-5.6-24.3-9.2-33.4-9.2z"/>
						</g>
						<g id="&lt;Group&gt;">
							<path id="&lt;Path&gt;" class="s1" d="m44.1 27.3q0 0 0 0c0-0.8 0-3.9 0-4.6 0-7 3.2-13.2 8.3-17.2q-2.7-0.3-4.9-0.3c-17.2 0-22.7 11.9-22.7 22.1q0 0 0 0 0 0 0 0 0 0 0 0 0 2 0.6 3.5c1.5 3.6 5 6.2 9.1 6.2 5.3 0 9.6-4.4 9.6-9.7q0 0 0 0z"/>
						</g>
					</g>
				</g>
			</g>
			<g id="&lt;Group&gt;">
				<path id="&lt;Compound Path&gt;" class="s2" d="m132 85.7c0 0 2.4 2.8 5.6 2.8 1.7 0 3.3-1 3.3-2.8 0-3.9-10.8-3.6-10.8-10.7 0-3.8 3.2-6.5 7.7-6.5 2.7 0 6.8 1.2 6.8 4.5v2.2h-3.8v-1.1c0-1-1.5-1.8-3.1-1.8-1.9 0-3.3 1-3.3 2.5 0 3.9 10.8 3.2 10.8 10.7 0 3.7-2.8 6.8-7.7 6.8-5.1 0-7.9-3.6-7.9-3.6z"/>
				<path id="&lt;Compound Path&gt;" fill-rule="evenodd" class="s2" d="m156 75c5 0 9.1 3.6 9.1 8.6 0 5.1-4.1 8.7-9.1 8.7-5 0-9.1-3.6-9.1-8.7 0-5 4.1-8.6 9.1-8.6zm0 13.8c2.7 0 4.9-2.1 4.9-5.2 0-3-2.2-5.1-4.9-5.1-2.7 0-4.9 2.1-4.9 5.1 0 3.1 2.2 5.2 4.9 5.2z"/>
				<path id="&lt;Compound Path&gt;" class="s2" d="m167.8 73.1c0-0.5-0.3-0.7-0.7-0.7h-1.3v-3.5h3.9c1.5 0 2.2 0.7 2.2 2.2v16.6c0 0.5 0.3 0.7 0.7 0.7h1.3v3.5h-3.9c-1.6 0-2.2-0.7-2.2-2.2z"/>
				<path id="&lt;Compound Path&gt;" fill-rule="evenodd" class="s2" d="m184.9 81.5h0.5v-0.1c0-2.4-1-3.3-3.1-3.3-0.7 0-2.2 0.2-2.2 1.1v0.9h-3.8v-1.7c0-3.1 4.3-3.4 6.1-3.4 5.5 0 7.1 2.9 7.1 6.6v6.1c0 0.5 0.3 0.7 0.7 0.7h1.3v3.5h-3.7c-1.5 0-2.1-0.8-2.1-1.8 0-0.4 0-0.7 0-0.7 0 0-1.3 2.9-5 2.9-3 0-5.7-1.9-5.7-5.2 0-5.2 7.2-5.6 9.9-5.6zm-3.2 7.6c2.2 0 3.7-2.4 3.7-4.4v-0.4h-0.7c-2.1 0-5.5 0.3-5.5 2.6 0 1.1 0.8 2.2 2.5 2.2z"/>
				<path id="&lt;Compound Path&gt;" class="s2" d="m194.2 79.6c0-0.5-0.3-0.7-0.7-0.7h-1.3v-3.5h3.7c1.5 0 2.2 0.6 2.2 2v0.9c0 0.7 0 1.1 0 1.1 0.8-2.4 2.7-4.3 5.3-4.3 0.3 0 0.7 0.1 0.7 0.1v4c0 0-0.4 0-1 0-1.7 0-3.7 1-4.5 3.5q-0.3 1.2-0.3 2.6v6.6h-4.1z"/>
				<path id="&lt;Compound Path&gt;" class="s2" d="m215.6 85.7c0 0 2.3 2.8 5.5 2.8 1.8 0 3.3-1 3.3-2.8 0-3.9-10.8-3.6-10.8-10.7 0-3.8 3.3-6.5 7.7-6.5 2.7 0 6.8 1.2 6.8 4.5v2.2h-3.8v-1.1c0-1-1.5-1.8-3-1.8-2 0-3.4 1-3.4 2.5 0 3.9 10.8 3.2 10.8 10.7 0 3.7-2.8 6.8-7.6 6.8-5.1 0-7.9-3.6-7.9-3.6z"/>
				<path id="&lt;Compound Path&gt;" class="s2" d="m231.8 73.1c0-0.5-0.2-0.7-0.7-0.7h-1.3v-3.5h4c1.5 0 2.2 0.7 2.2 2.1v5.9c0 0.8-0.1 1.3-0.1 1.3h0.1c0.7-1.5 2.8-3.2 5.6-3.2 3.7 0 5.8 1.9 5.8 6.3v6.4c0 0.5 0.3 0.7 0.7 0.7h1.3v3.5h-3.9c-1.5 0-2.2-0.7-2.2-2.2v-7.6c0-2-0.5-3.4-2.6-3.4-2.2 0-3.9 1.5-4.5 3.5-0.2 0.6-0.2 1.3-0.2 2.1v7.6h-4.2z"/>
				<path id="&lt;Compound Path&gt;" fill-rule="evenodd" class="s2" d="m259.5 75c5 0 9 3.6 9 8.6 0 5.1-4 8.7-9 8.7-5.1 0-9.1-3.6-9.1-8.7 0-5 4-8.6 9.1-8.6zm0 13.8c2.7 0 4.9-2.1 4.9-5.2 0-3-2.2-5.1-4.9-5.1-2.7 0-4.9 2.1-4.9 5.1 0 3.1 2.2 5.2 4.9 5.2z"/>
				<path id="&lt;Compound Path&gt;" fill-rule="evenodd" class="s2" d="m271.6 79.6c0-0.5-0.2-0.7-0.7-0.7h-1.3v-3.5h3.7c1.5 0 2 0.6 2 1.5 0 0.4 0 0.7 0 0.7h0.1c0 0 1.4-2.6 5.3-2.6 4.4 0 7.3 3.5 7.3 8.6 0 5.3-3.2 8.7-7.6 8.7-3.2 0-4.7-2.2-4.7-2.2h-0.1c0 0 0.1 0.6 0.1 1.4v6.9h-4.1zm8.1 9.2c2.3 0 4.2-1.8 4.2-5.1 0-3.1-1.7-5.2-4.1-5.2-2.2 0-4.2 1.6-4.2 5.2 0 2.6 1.4 5.1 4.1 5.1z"/>
			</g>
		</g>
	</g>
</svg>