<?xml version="1.0" encoding="UTF-8"?>
<svg id="Layer_2" data-name="Layer 2" xmlns="http://www.w3.org/2000/svg" viewBox="0 0 71.46 57.6">
  <defs>
    <style>
      .cls-1 {
        fill: #03525c;
      }

      .cls-1, .cls-2 {
        stroke-width: 0px;
      }

      .cls-2 {
        fill: #f2c400;
      }
    </style>
  </defs>
  <path class="cls-2" d="M54.75,20.87c0-9.36-7.61-16.97-16.97-16.97s-16.98,7.61-16.98,16.97,7.61,16.98,16.98,16.98,16.97-7.61,16.97-16.98M56.61,20.87c0,10.4-8.43,18.84-18.84,18.84s-18.84-8.43-18.84-18.84S27.38,2.03,37.78,2.03s18.84,8.43,18.84,18.84"/>
  <path class="cls-2" d="M19.67,53.15h.86l-.42-1.48h-.02l-.42,1.48ZM20.65,53.55h-1.09l-.26.92h-.53l1.09-3.64h.49l1.08,3.64h-.53l-.26-.92Z"/>
  <path class="cls-2" d="M25.13,53.37v.02c.01.36-.09.64-.29.83-.21.2-.49.3-.85.3s-.67-.12-.89-.36c-.22-.24-.33-.57-.33-1.01v-1.01c0-.43.11-.77.33-1.01.22-.24.51-.36.88-.36s.66.1.87.29c.21.19.31.47.3.84h0s-.49.01-.49.01c0-.26-.06-.45-.17-.57-.11-.12-.28-.18-.51-.18s-.4.08-.52.25c-.12.17-.18.41-.18.72v1.02c0,.32.06.56.19.73.12.17.3.25.53.25s.38-.06.49-.18c.11-.12.17-.31.17-.58h.49Z"/>
  <path class="cls-2" d="M27.34,53.15h.86l-.42-1.48h-.01l-.42,1.48ZM28.31,53.55h-1.09l-.26.92h-.53l1.09-3.64h.49l1.08,3.64h-.53l-.26-.92Z"/>
  <path class="cls-2" d="M31.05,51.22v2.86h.52c.25,0,.45-.11.6-.33.15-.22.22-.5.22-.85v-.52c0-.34-.08-.62-.22-.84-.15-.22-.35-.33-.6-.33h-.52ZM30.54,54.47v-3.64h1.03c.39,0,.71.15.96.44.25.29.37.67.37,1.12v.52c0,.46-.12.83-.37,1.12-.25.29-.57.43-.96.43h-1.03Z"/>
  <polygon class="cls-2" points="36.29 52.78 35.05 52.78 35.05 54.08 36.51 54.08 36.51 54.47 34.54 54.47 34.54 50.83 36.49 50.83 36.49 51.22 35.05 51.22 35.05 52.39 36.29 52.39 36.29 52.78"/>
  <polygon class="cls-2" points="39.56 53.8 39.57 53.8 40.44 50.83 41.09 50.83 41.09 54.47 40.59 54.47 40.59 51.85 40.57 51.84 39.74 54.47 39.39 54.47 38.54 51.8 38.53 51.81 38.53 54.47 38.02 54.47 38.02 50.83 38.69 50.83 39.56 53.8"/>
  <polygon class="cls-2" points="43.78 52.6 43.79 52.6 44.55 50.83 45.12 50.83 44.03 53.16 44.03 54.47 43.52 54.47 43.52 53.12 42.45 50.83 43.01 50.83 43.78 52.6"/>
  <path class="cls-1" d="M19.86,46.04h.67c.27,0,.47-.06.6-.17.13-.11.2-.28.2-.5s-.07-.39-.2-.52c-.13-.13-.32-.19-.58-.19h-.69v1.38ZM19.86,46.78v1.9h-.95v-4.74h1.64c.54,0,.96.12,1.27.37s.46.59.46,1.03c0,.24-.06.45-.19.63-.13.18-.32.32-.57.43.28.08.48.22.6.41s.18.43.18.72v.35c0,.13.02.27.05.41.04.14.1.25.18.32v.07h-.98c-.09-.07-.14-.18-.17-.35-.03-.16-.04-.32-.04-.47v-.34c0-.24-.06-.42-.19-.55-.13-.13-.31-.2-.55-.2h-.76Z"/>
  <polygon class="cls-1" points="27.2 46.59 25.44 46.59 25.44 47.94 27.53 47.94 27.53 48.67 24.49 48.67 24.49 43.93 27.52 43.93 27.52 44.66 25.44 44.66 25.44 45.85 27.2 45.85 27.2 46.59"/>
  <polygon class="cls-1" points="32.84 44.66 31.48 44.66 31.48 48.67 30.53 48.67 30.53 44.66 29.2 44.66 29.2 43.93 32.84 43.93 32.84 44.66"/>
  <g>
    <path class="cls-1" d="M35.64,46.04h.67c.27,0,.47-.06.6-.17.13-.11.2-.28.2-.5s-.07-.39-.2-.52c-.13-.13-.32-.19-.58-.19h-.69v1.38ZM35.64,46.78v1.9h-.95v-4.74h1.64c.54,0,.96.12,1.27.37s.46.59.46,1.03c0,.24-.06.45-.19.63-.13.18-.32.32-.57.43.28.08.48.22.6.41.12.19.18.43.18.72v.35c0,.13.02.27.05.41.04.14.1.25.18.32v.07h-.98c-.09-.07-.14-.18-.17-.35-.02-.16-.04-.32-.04-.47v-.34c0-.24-.06-.42-.19-.55-.13-.13-.31-.2-.55-.2h-.76Z"/>
    <path class="cls-1" d="M43.16,45.87c0-.37-.09-.67-.28-.91-.18-.24-.44-.35-.77-.35s-.57.12-.75.35c-.18.24-.27.54-.27.91v.86c0,.38.09.68.27.92.18.24.43.35.76.35s.58-.12.76-.35c.18-.24.27-.54.27-.92v-.86ZM44.11,46.73c0,.58-.18,1.07-.55,1.44-.37.38-.84.57-1.43.57s-1.06-.19-1.43-.57c-.36-.38-.55-.86-.55-1.44v-.85c0-.58.18-1.06.55-1.44.36-.38.84-.57,1.42-.57s1.07.19,1.44.57c.37.38.55.86.55,1.44v.85Z"/>
  </g>
  <polygon class="cls-1" points="48.97 46.7 47.15 46.7 47.15 48.67 46.2 48.67 46.2 43.93 49.3 43.93 49.3 44.66 47.15 44.66 47.15 45.97 48.97 45.97 48.97 46.7"/>
  <rect class="cls-1" x="51.3" y="43.93" width=".95" height="4.74"/>
  <polygon class="cls-1" points="57.74 44.66 56.38 44.66 56.38 48.67 55.43 48.67 55.43 44.66 54.1 44.66 54.1 43.93 57.74 43.93 57.74 44.66"/>
  <g>
    <path class="cls-1" d="M37.75,5.85c-8.25,0-14.96,6.71-14.96,14.96,0,6.79,4.56,12.54,10.77,14.36.05.02.09.03.09.03l.05-21.15c.56-.02,1.1-.04,1.6-.06.49-.02.95-.03,1.4-.03s.88.02,1.31.06c.41.04.79.11,1.14.2.37.08.71.18,1.02.32.29.14.57.29.84.47.25.16.48.33.67.52.17.21.33.44.47.67.12.23.2.5.26.79.08.27.12.58.12.93,0,.66-.13,1.28-.38,1.86-.25.58-.64,1.13-1.16,1.63-.27.27-.53.5-.79.7-.25.19-.49.35-.73.47-.23.12-.46.2-.67.26-.21.06-.63.09-1.63.09-.83,0-2.22-.06-2.22-.06v2.21s1.92.08,2.45.08,1.51,0,1.51,0c0,0,1.41,1.63,2.01,2.33.6.68,1.14,1.28,1.6,1.81.23.25.73.77,1.48,1.54.76.78,1.45,1.41,2.28,2.27h0s0,0,0,0c3.92-2.7,6.42-7.2,6.42-12.31,0-8.25-6.71-14.96-14.96-14.96ZM44.24,27.22c-.29-.33-.58-.65-.87-.96l-.82-.93c-.19-.19-.38-.4-.55-.61-.17-.19-.34-.39-.49-.58.45-.31.89-.66,1.34-1.05.43-.37.83-.8,1.19-1.28.23-.29.44-.59.61-.9.17-.29.33-.6.47-.93.12-.31.2-.63.26-.96s.09-.67.09-1.02c0-.5-.06-.98-.17-1.43-.1-.45-.25-.87-.47-1.28-.19-.39-.46-.75-.79-1.08-.31-.35-.67-.66-1.08-.93-.41-.27-.83-.51-1.28-.73-.47-.19-.95-.36-1.46-.49-.5-.14-1.04-.23-1.6-.29-.52-.08-1.07-.12-1.63-.12h-.15c-.35,0-.73,0-1.14.03-.41,0-.83,0-1.28.03-.47.02-.95.04-1.46.06-.49.04-1,.07-1.54.09-.25.02-.44.04-.55.06v20.05c-3.73-2.31-6.22-6.44-6.22-11.14,0-7.22,5.88-13.1,13.1-13.1s13.1,5.88,13.1,13.1c0,3.6-1.47,6.87-3.83,9.24l-1.61-1.61c-.64-.66-1.03-1.07-1.16-1.22Z"/>
    <path class="cls-2" d="M49.7,53.3v.02c.01.34-.11.63-.35.86-.25.23-.57.34-.98.34s-.75-.15-1.01-.44c-.26-.29-.39-.66-.39-1.11v-.65c0-.45.13-.82.39-1.11.26-.29.59-.44,1.01-.44s.74.11.98.33c.24.22.36.51.35.87h0s-.47.01-.47.01c0-.25-.08-.46-.22-.6-.15-.15-.36-.22-.63-.22s-.49.11-.66.33c-.16.22-.24.5-.24.82v.65c0,.33.08.61.24.83.16.22.38.33.66.33s.48-.07.63-.22c.15-.15.22-.35.22-.61h.47Z"/>
  </g>
  <rect class="cls-2" x="51.5" y="50.82" width=".49" height="3.64"/>
  <path class="cls-2" d="M56.61,53.3v.02c.01.34-.11.63-.35.86-.25.23-.57.34-.98.34s-.75-.15-1.01-.44c-.26-.29-.39-.66-.39-1.11v-.65c0-.45.13-.82.39-1.11.26-.29.59-.44,1.01-.44s.74.11.98.33c.24.22.36.51.35.87h0s-.47.01-.47.01c0-.25-.08-.46-.22-.6-.15-.15-.36-.22-.63-.22s-.49.11-.66.33c-.16.22-.24.5-.24.82v.65c0,.33.08.61.24.83.16.22.38.33.66.33s.48-.07.63-.22c.15-.15.22-.35.22-.61h.47Z"/>
</svg>