<?xml version="1.0" encoding="UTF-8"?>
<svg id="Layer_2" data-name="Layer 2" xmlns="http://www.w3.org/2000/svg" viewBox="0 0 71.46 57.6">
  <defs>
    <style>
      .cls-1 {
        fill: #000;
      }

      .cls-1, .cls-2 {
        stroke-width: 0px;
      }

      .cls-2 {
        fill: #fff;
      }
    </style>
  </defs>
  <rect class="cls-1" x="13.41" y="3.03" width="41.82" height="41.82"/>
  <path class="cls-2" d="M45.47,20.37c-.35,0-.63-.28-.63-.63,0-.35.28-.63.63-.63.35,0,.63.28.63.63,0,.35-.28.63-.63.63h0ZM47.21,20.37c-.35,0-.63-.28-.63-.63,0-.35.28-.63.63-.63.35,0,.63.28.63.63,0,.35-.28.63-.63.63h0ZM43.21,20.23c-.16-.31-.03-.69.28-.84h0c.31-.16.69-.03.85.28.16.31.03.69-.28.84-.09.04-.19.07-.28.07-.23,0-.45-.13-.56-.35M48.39,20.75c-.26-.23-.28-.63-.04-.89.23-.26.63-.28.89-.04.26.23.28.63.04.89-.12.14-.3.21-.47.21-.15,0-.3-.05-.42-.16M42.52,21.86c-.33-.1-.53-.44-.43-.78.1-.33.44-.53.78-.43.33.1.53.44.43.78-.08.28-.33.46-.61.46-.06,0-.12,0-.17-.02M42.38,23.25c-.18-.3-.09-.68.21-.87.3-.18.68-.09.87.21.18.3.09.68-.21.87-.1.06-.22.09-.33.09-.21,0-.42-.11-.54-.3M44.18,24.51c-.34-.07-.56-.4-.5-.74.07-.34.4-.56.74-.5.34.07.56.4.5.74-.06.3-.32.51-.62.51-.04,0-.08,0-.12-.01M45.41,23.93c0-.35.28-.63.63-.63s.63.28.63.63-.28.63-.63.63-.63-.28-.63-.63M47.66,24.58c-.34-.07-.56-.4-.5-.74.07-.34.4-.56.74-.5.34.07.56.4.5.74-.06.3-.32.51-.62.51-.04,0-.08,0-.12-.01M48.63,25.26c-.18-.3-.09-.68.21-.87.3-.18.68-.09.87.21.18.3.09.68-.21.87-.1.06-.22.09-.33.09-.21,0-.42-.11-.54-.3M49.22,27.21c-.33-.1-.53-.44-.43-.78.1-.33.44-.53.78-.43.33.1.53.44.43.78-.08.28-.33.46-.61.46-.06,0-.12,0-.17-.02M42.84,28.04c-.26-.24-.27-.63-.04-.89.24-.26.63-.27.89-.04.26.23.27.63.04.89-.12.13-.29.2-.46.2-.15,0-.3-.06-.42-.17M47.75,28.18c-.16-.31-.03-.69.28-.84.31-.16.69-.03.85.28.16.31.03.69-.28.85-.09.04-.19.07-.28.07-.23,0-.45-.13-.56-.35M44.24,28.12c0-.35.28-.63.63-.63s.63.28.63.63-.28.63-.63.63-.63-.28-.63-.63M45.98,28.12c0-.35.28-.63.63-.63s.63.28.63.63-.28.63-.63.63-.63-.28-.63-.63M39.23,22.47s.08,0,.12-.01c.04,0,.08-.02.12-.04.04-.02.07-.04.11-.06.03-.02.07-.05.1-.08.03-.03.06-.06.08-.1.02-.03.04-.07.06-.11.02-.04.03-.08.04-.12,0-.04.01-.08.01-.12s0-.08-.01-.12c0-.04-.02-.08-.04-.12-.02-.04-.03-.07-.06-.11-.02-.03-.05-.07-.08-.1s-.06-.06-.1-.08c-.03-.02-.07-.04-.11-.06-.04-.02-.08-.03-.12-.04-.08-.02-.17-.02-.25,0-.04,0-.08.02-.12.04-.04.02-.07.04-.11.06-.03.02-.07.05-.1.08-.03.03-.06.06-.08.1-.02.03-.04.07-.06.11-.02.04-.03.08-.04.12,0,.04-.01.08-.01.12s0,.08.01.12c0,.04.02.08.04.12.02.04.03.07.06.11.02.03.05.07.08.1s.06.06.1.08c.03.02.07.04.11.06.04.02.08.03.12.04.04,0,.08.01.12.01M35.17,20.36c-.35,0-.63-.28-.63-.63,0-.35.28-.63.63-.63.35,0,.63.28.63.63s-.28.63-.63.63h0ZM36.92,20.37c-.35,0-.63-.28-.63-.63,0-.35.28-.63.63-.63.35,0,.63.28.63.63,0,.35-.28.63-.63.63h0ZM32.9,20.26c-.16-.31-.04-.69.27-.85.31-.16.69-.04.85.27.16.31.04.69-.27.85h0c-.09.05-.19.07-.29.07-.23,0-.45-.12-.56-.34M38.12,20.75h0c-.26-.23-.28-.63-.04-.89.23-.26.63-.28.89-.04.26.23.28.63.04.89-.12.14-.3.21-.47.21-.15,0-.3-.05-.42-.16M32.24,21.91c-.34-.09-.54-.43-.45-.77h0c.09-.34.43-.54.77-.45.34.09.54.43.45.77h0c-.07.28-.33.47-.61.47-.05,0-.11,0-.16-.02M32.32,23.68c-.35,0-.63-.28-.63-.63h0c0-.35.29-.63.63-.63.35,0,.63.29.63.63h0c0,.35-.28.63-.63.63h0ZM32.31,25.44c-.35,0-.63-.29-.63-.63,0-.35.28-.63.63-.63.35,0,.63.29.63.63,0,.35-.28.63-.63.63h0ZM31.77,26.72h0c-.09-.34.11-.68.45-.77.34-.09.68.11.77.45h0c.09.34-.11.68-.45.77-.05.01-.11.02-.16.02-.28,0-.54-.19-.61-.47M38.05,28c-.23-.26-.22-.65.04-.89.26-.24.65-.22.89.04.24.26.22.66-.04.89-.12.11-.27.17-.43.17-.17,0-.34-.07-.46-.2M33.15,28.45c-.31-.16-.43-.54-.27-.85.16-.31.54-.43.85-.27.31.16.43.54.27.85-.11.21-.33.34-.56.34-.1,0-.2-.02-.29-.07M34.52,28.12c0-.35.28-.63.63-.63s.63.28.63.63-.28.63-.63.63-.63-.28-.63-.63M36.27,28.12c0-.35.28-.63.63-.63s.63.28.63.63-.28.63-.63.63-.63-.28-.63-.63M39.2,26.66s.08,0,.12-.01c.04,0,.08-.02.12-.04.04-.02.07-.04.11-.06.03-.02.07-.05.1-.08.03-.03.06-.06.08-.1.02-.03.04-.07.06-.11.02-.04.03-.08.04-.12,0-.04.01-.08.01-.12,0-.17-.07-.33-.18-.45-.03-.03-.06-.06-.1-.08-.03-.02-.07-.04-.11-.06-.04-.02-.08-.03-.12-.04-.08-.02-.17-.02-.25,0-.04,0-.08.02-.12.04-.04.02-.07.03-.11.06-.03.02-.07.05-.1.08-.12.12-.18.28-.18.45s.07.33.18.44c.03.03.06.06.1.08.03.02.07.04.11.06.04.02.08.03.12.04.04,0,.08.01.12.01M19.7,28.78s.08,0,.12-.01c.04,0,.08-.02.12-.04.04-.02.07-.04.11-.06.03-.02.07-.05.1-.08.03-.03.06-.06.08-.1.02-.03.04-.07.06-.11.02-.04.03-.08.04-.12,0-.04.01-.08.01-.12s0-.08-.01-.12c0-.04-.02-.08-.04-.12-.02-.04-.03-.07-.06-.11-.02-.03-.05-.07-.08-.1-.03-.03-.06-.06-.1-.08-.03-.02-.07-.04-.11-.06-.04-.02-.08-.03-.12-.04-.08-.02-.17-.02-.25,0-.04,0-.08.02-.12.04-.04.02-.07.03-.11.06-.03.02-.07.05-.1.08-.12.12-.18.28-.18.44s.07.33.18.44c.03.03.06.06.1.08.03.02.07.04.11.06.04.02.08.03.12.04.04,0,.08.01.12.01M19.07,21.61c0-.35.28-.63.63-.63s.63.28.63.63-.28.63-.63.63-.63-.28-.63-.63M19.07,23.24c0-.35.28-.63.63-.63s.63.28.63.63-.28.63-.63.63-.63-.28-.63-.63M19.07,24.88c0-.35.28-.63.63-.63s.63.28.63.63-.28.63-.63.63-.63-.28-.63-.63M19.07,26.52c0-.35.28-.63.63-.63s.63.28.63.63-.28.63-.63.63-.63-.28-.63-.63M19.7,20.6s.08,0,.12-.01c.04,0,.08-.02.12-.04.04-.02.07-.04.11-.06.03-.02.07-.05.1-.08.12-.12.18-.28.18-.44,0-.04,0-.08-.01-.12,0-.04-.02-.08-.04-.12-.02-.04-.03-.07-.06-.11-.02-.03-.05-.07-.08-.1s-.06-.06-.1-.08c-.03-.02-.07-.04-.11-.06-.04-.02-.08-.03-.12-.04-.08-.02-.17-.02-.25,0-.04,0-.08.02-.12.04-.04.02-.07.03-.11.06-.03.02-.07.05-.1.08-.03.03-.06.06-.08.1-.02.03-.04.07-.06.11-.02.04-.03.08-.04.12,0,.04-.01.08-.01.12s0,.08.01.12c0,.04.02.08.04.12.02.04.04.07.06.11.02.03.05.07.08.1.03.03.06.06.1.08.03.02.07.04.11.06.04.02.08.03.12.04.04,0,.08.01.12.01M20.71,21.81c-.25-.25-.25-.64,0-.89.25-.25.64-.25.89,0,.25.25.25.64,0,.89-.12.12-.28.19-.45.19s-.32-.06-.44-.18M22.11,23.21c-.25-.24-.25-.64,0-.89.25-.25.64-.25.89,0,.25.25.25.64,0,.89-.12.12-.28.19-.45.19s-.32-.06-.44-.18M23.96,24.8s.08,0,.12-.01c.04,0,.08-.02.12-.04.04-.02.07-.04.11-.06.03-.02.07-.05.1-.08.03-.03.06-.06.08-.1.02-.03.04-.07.06-.11.02-.04.03-.08.04-.12,0-.04.01-.08.01-.12s0-.08-.01-.12c0-.04-.02-.08-.04-.12-.02-.04-.04-.07-.06-.11-.02-.03-.05-.07-.08-.1-.03-.03-.06-.06-.1-.08-.03-.02-.07-.04-.11-.06-.04-.02-.08-.03-.12-.04-.08-.02-.16-.02-.25,0-.04,0-.08.02-.12.04-.04.02-.07.04-.11.06-.03.02-.07.05-.1.08-.03.03-.06.06-.08.1-.02.03-.04.07-.06.11-.02.04-.03.08-.04.12,0,.04-.01.08-.01.12,0,.17.07.33.18.44s.28.18.45.18M26.31,21.83c-.24-.25-.24-.64,0-.89.25-.25.64-.24.89,0s.24.65,0,.89c-.12.12-.28.18-.44.18s-.32-.06-.45-.18M24.91,23.22c-.24-.25-.24-.65,0-.89.25-.25.65-.24.89,0,.24.25.24.64,0,.89-.12.12-.28.18-.44.18s-.32-.06-.45-.19M28.2,20.62s.08,0,.12-.01c.04,0,.08-.02.12-.04.04-.02.07-.03.11-.06.03-.02.07-.05.1-.08.03-.03.06-.06.08-.1.02-.03.04-.07.06-.11.02-.04.03-.08.04-.12,0-.04.01-.08.01-.12,0-.17-.07-.33-.18-.45-.03-.03-.06-.06-.1-.08-.03-.02-.07-.04-.11-.06-.04-.02-.08-.03-.12-.04-.08-.02-.17-.02-.25,0-.04,0-.08.02-.12.04-.04.02-.07.03-.11.06-.03.02-.07.05-.1.08-.12.12-.18.28-.18.45,0,.04,0,.08.01.12,0,.04.02.08.04.12.02.04.03.07.06.11.02.03.05.07.08.1.03.03.06.06.1.08s.07.04.11.06c.04.02.08.03.12.04.04,0,.08.01.12.01M27.57,21.62c0-.35.28-.63.63-.63s.63.28.63.63-.28.63-.63.63-.63-.28-.63-.63M27.57,23.26c0-.35.28-.63.63-.63s.63.28.63.63-.28.63-.63.63-.63-.28-.63-.63M27.57,24.89c0-.35.28-.63.63-.63s.63.28.63.63-.28.63-.63.63-.63-.28-.63-.63M27.57,26.52c0-.35.28-.63.63-.63s.63.28.63.63-.28.63-.63.63-.63-.28-.63-.63M28.2,28.78s.08,0,.12-.01c.04,0,.08-.02.12-.04.04-.02.07-.04.11-.06.03-.02.07-.05.1-.08.12-.12.18-.28.18-.45,0-.04,0-.08-.01-.12,0-.04-.02-.08-.04-.12-.02-.04-.04-.07-.06-.11-.02-.03-.05-.07-.08-.1-.03-.03-.06-.06-.1-.08-.03-.02-.07-.04-.11-.06-.04-.02-.08-.03-.12-.04-.08-.02-.17-.02-.25,0-.04,0-.08.02-.12.04-.04.02-.07.03-.11.06-.03.02-.07.05-.1.08-.03.03-.06.06-.08.1-.02.03-.04.07-.06.11-.02.04-.03.08-.04.12,0,.04-.01.08-.01.12,0,.17.07.33.18.45.03.03.06.06.1.08.03.02.07.04.11.06.04.02.08.03.12.04.04,0,.08.01.12.01"/>
  <path class="cls-1" d="M53.05,49.19c.71,0,1.25.57,1.25,1.28s-.57,1.28-1.25,1.28h-.66v-2.56h.66ZM51.5,48.39v4.17h1.55c1.22,0,2.14-.92,2.14-2.08s-.92-2.08-2.14-2.08h-1.55ZM47.18,51.75v-.92h1.7v-.8h-1.7v-.83h2.17v-.8h-3.07v4.17h3.13v-.8h-2.23ZM43.08,52.56h.89v-4.17h-.89v4.17ZM37.98,48.39v4.17h.89v-1.64h1.7v-.8h-1.7v-.92h2.17v-.8h-3.07ZM34.77,52.56h.89v-4.17h-.89v4.17ZM29.59,48.39v.8h1.19v3.36h.89v-3.36h1.19v-.8h-3.27ZM27.03,49.76c0,.3-.24.54-.57.54h-.92v-1.1h.92c.33,0,.57.24.57.57M24.65,52.56h.89v-1.46h.77l.8,1.46h.95l-.89-1.58s.74-.33.74-1.22c0-.76-.6-1.37-1.43-1.37h-1.85v4.17ZM20.33,51.75v-.92h1.7v-.8h-1.7v-.83h2.17v-.8h-3.07v4.17h3.13v-.8h-2.23ZM15.72,48.3c-1.28,0-2.26.98-2.26,2.17s.98,2.17,2.26,2.17c1.16,0,1.76-.83,1.76-.83l-.54-.57s-.42.6-1.22.6-1.37-.6-1.37-1.37.6-1.37,1.37-1.37,1.16.6,1.16.6l.57-.57s-.57-.83-1.73-.83"/>
</svg>