<?xml version="1.0" encoding="UTF-8"?>
<svg id="Layer_2" data-name="Layer 2" xmlns="http://www.w3.org/2000/svg" viewBox="0 0 71.46 57.6">
  <defs>
    <style>
      .cls-1 {
        fill: #1d1d1b;
      }

      .cls-1, .cls-2 {
        stroke-width: 0px;
      }

      .cls-2 {
        fill: #ffed00;
      }
    </style>
  </defs>
  <rect class="cls-1" x="11.65" y="3.68" width="46.91" height="50.76" rx="1.87" ry="1.87"/>
  <path class="cls-2" d="M16.71,42.22c-.22.27-.36.61-.36.98,0,.85.69,1.54,1.54,1.54h34.36c.85,0,1.54-.69,1.54-1.54V8.85c0-.85-.69-1.54-1.54-1.54-.37,0-.71.13-.97.35L16.71,42.22Z"/>
  <g>
    <path class="cls-1" d="M33.78,34.25c-.13.06-.27.08-.41.08-.22,0-.41-.04-.58-.11-.17-.07-.32-.18-.44-.31-.12-.13-.21-.29-.27-.46-.06-.18-.09-.37-.09-.57s.03-.4.09-.58c.06-.18.15-.34.27-.47.12-.13.26-.24.44-.31.17-.08.37-.11.58-.11.14,0,.28.02.42.06s.26.11.37.19c.11.08.2.19.27.31.07.12.11.27.13.43h-.59c-.04-.16-.11-.28-.21-.35-.11-.08-.23-.12-.38-.12-.14,0-.26.03-.35.08-.1.05-.18.13-.24.22-.06.09-.1.19-.13.31-.03.12-.04.23-.04.36s.01.23.04.34.07.21.13.3c.06.09.14.16.24.21.1.05.22.08.35.08.2,0,.36-.05.47-.15.11-.1.18-.25.19-.45h-.62v-.46h1.18v1.52h-.39l-.06-.32c-.11.14-.23.24-.37.3Z"/>
    <path class="cls-1" d="M36.43,31.46l1.05,2.81h-.64l-.21-.62h-1.05l-.22.62h-.62l1.06-2.81h.63ZM36.46,33.18l-.35-1.03h0l-.37,1.03h.73Z"/>
    <path class="cls-1" d="M38.12,33.58c.03.07.08.12.14.16.06.04.12.07.2.09.08.02.15.03.24.03.06,0,.11,0,.18-.01.06,0,.12-.03.18-.05.06-.03.1-.06.14-.11.04-.05.06-.1.06-.18,0-.08-.02-.14-.07-.19-.05-.05-.11-.09-.19-.12-.08-.03-.17-.06-.27-.08-.1-.02-.2-.05-.3-.08-.1-.03-.21-.06-.31-.1s-.19-.09-.27-.15c-.08-.06-.14-.14-.19-.23-.05-.09-.07-.2-.07-.33,0-.14.03-.27.09-.38.06-.11.14-.19.24-.27.1-.07.21-.12.34-.16.13-.03.25-.05.38-.05.15,0,.29.02.42.05.14.03.26.09.36.16.1.07.19.17.25.28.06.11.09.25.09.42h-.6c0-.08-.02-.15-.05-.21-.03-.06-.07-.1-.12-.13-.05-.03-.11-.05-.17-.07-.06-.01-.13-.02-.21-.02-.05,0-.1,0-.15.02-.05.01-.1.03-.14.06-.04.03-.07.06-.1.1-.03.04-.04.09-.04.15,0,.06.01.1.03.13.02.03.06.07.12.09.06.03.15.06.26.09s.25.07.43.11c.05.01.13.03.22.06s.19.07.28.13c.09.06.17.14.24.24.07.1.1.23.1.39,0,.13-.03.25-.07.36-.05.11-.12.21-.22.29-.1.08-.22.14-.37.19-.15.04-.31.07-.51.07-.16,0-.31-.02-.45-.06-.15-.04-.27-.1-.39-.18-.11-.08-.2-.19-.27-.31-.07-.13-.1-.28-.09-.45h.6c0,.09.02.17.05.24Z"/>
  </g>
  <g>
    <path class="cls-1" d="M26.77,40.87c.09.16.21.29.36.39.15.1.31.18.5.22.19.05.39.07.59.07.15,0,.3-.02.46-.05.16-.03.31-.09.44-.16.13-.07.24-.17.33-.29.09-.12.13-.27.13-.46,0-.31-.21-.54-.62-.7-.41-.16-.99-.31-1.73-.47-.3-.07-.6-.15-.88-.24-.29-.09-.54-.21-.77-.36s-.4-.34-.54-.57c-.14-.23-.2-.51-.2-.84,0-.49.09-.88.28-1.19.19-.31.44-.56.75-.74.31-.18.66-.31,1.05-.38.39-.07.79-.11,1.19-.11s.8.04,1.19.12c.38.08.73.21,1.03.39.3.18.55.43.75.74.2.31.32.69.36,1.16h-1.96c-.03-.4-.18-.67-.45-.81-.27-.14-.59-.21-.96-.21-.12,0-.24,0-.38.02-.14.01-.26.05-.37.09-.11.05-.21.12-.28.21-.08.09-.12.22-.12.37,0,.18.07.34.2.45.14.12.31.21.53.28.22.07.47.14.75.2.28.06.57.12.86.19.3.07.6.15.88.25s.54.23.77.39c.22.16.4.36.54.6.14.24.2.53.2.88,0,.5-.1.91-.3,1.25-.2.34-.46.6-.78.81-.32.2-.69.35-1.1.43-.41.08-.83.12-1.26.12s-.86-.04-1.28-.13c-.42-.09-.79-.23-1.11-.44-.33-.2-.59-.47-.8-.81-.21-.33-.32-.75-.34-1.26h1.96c0,.22.05.41.14.57Z"/>
    <path class="cls-1" d="M32.84,36.32c.21-.32.49-.58.82-.77.33-.19.7-.33,1.11-.41.41-.08.83-.12,1.24-.12.38,0,.76.03,1.15.08.39.05.74.16,1.06.31.32.16.58.37.79.65.2.28.31.64.31,1.1v3.92c0,.34.02.67.06.98.04.31.11.54.2.7h-2.1c-.04-.12-.07-.24-.09-.36-.02-.12-.04-.24-.05-.37-.33.34-.72.58-1.17.72-.45.14-.9.2-1.37.2-.36,0-.69-.04-1.01-.13-.31-.09-.58-.22-.82-.41-.23-.18-.42-.42-.55-.7-.13-.28-.2-.62-.2-1.01,0-.43.08-.78.23-1.06.15-.28.35-.5.58-.66.24-.17.51-.29.82-.37.31-.08.62-.15.93-.2.31-.05.62-.09.92-.12.3-.03.57-.07.8-.13.23-.06.42-.14.55-.26.14-.11.2-.27.19-.49,0-.22-.04-.4-.11-.53-.07-.13-.17-.23-.29-.31-.12-.07-.26-.12-.42-.15-.16-.02-.33-.04-.52-.04-.41,0-.73.09-.96.26-.23.17-.37.47-.41.87h-2.06c.03-.49.15-.89.36-1.21ZM36.92,39.24c-.13.04-.27.08-.42.11-.15.03-.31.05-.48.07-.17.02-.33.04-.5.07-.16.03-.31.07-.46.12-.15.05-.28.11-.39.2-.11.08-.2.19-.27.31-.07.13-.1.29-.1.48s.03.34.1.47c.07.13.16.23.28.3.12.07.25.12.41.15.16.03.32.04.48.04.41,0,.73-.07.95-.2.22-.14.39-.3.5-.49.11-.19.17-.38.2-.58.02-.19.04-.35.04-.47v-.77c-.09.08-.2.14-.33.18Z"/>
    <path class="cls-1" d="M39.84,36.59v-1.38h1.24v-.58c0-.67.21-1.22.63-1.65.42-.43,1.05-.64,1.89-.64.18,0,.37,0,.55.02.18.02.36.03.54.04v1.54c-.24-.03-.5-.04-.76-.04-.28,0-.48.07-.6.2-.12.13-.18.35-.18.66v.45h1.43v1.38h-1.43v6.14h-2.06v-6.14h-1.24Z"/>
    <path class="cls-1" d="M47.4,40.93c.31.3.76.45,1.34.45.42,0,.78-.1,1.08-.31.3-.21.49-.43.55-.66h1.82c-.29.9-.74,1.55-1.34,1.94-.6.39-1.33.58-2.19.58-.59,0-1.13-.09-1.6-.28s-.88-.46-1.21-.81c-.33-.35-.58-.77-.76-1.25s-.27-1.02-.27-1.6.09-1.09.28-1.57c.18-.49.45-.91.79-1.26.34-.35.74-.63,1.21-.84.47-.2.99-.31,1.57-.31.64,0,1.2.12,1.68.37.48.25.87.58,1.17,1,.31.42.53.89.66,1.43.14.53.18,1.09.15,1.67h-5.43c.03.67.2,1.16.51,1.46ZM49.74,36.97c-.25-.27-.62-.41-1.13-.41-.33,0-.6.06-.82.17-.22.11-.39.25-.52.41-.13.16-.22.34-.28.52-.05.18-.09.35-.09.49h3.36c-.1-.52-.27-.92-.52-1.19Z"/>
  </g>
  <g>
    <path class="cls-1" d="M50.19,32.2v.14h-.58v1.54h-.16v-1.54h-.58v-.14h1.33Z"/>
    <path class="cls-1" d="M50.53,32.2l.58,1.47.58-1.47h.23v1.67h-.16v-1.45h0l-.57,1.45h-.15l-.57-1.45h0v1.45h-.16v-1.67h.23Z"/>
  </g>
  <g>
    <path class="cls-2" d="M33.82,46.27c.13,0,.24.02.34.06.1.04.19.1.26.17.07.07.13.15.17.25.04.09.06.19.06.3,0,.17-.03.31-.1.43-.07.12-.18.21-.34.28h0c.08.03.14.06.19.1.05.04.09.09.12.15.03.06.05.12.07.2.01.07.02.14.03.21,0,.04,0,.1,0,.16,0,.06,0,.12.01.19,0,.06.02.12.03.18.01.06.04.1.07.14h-.62c-.03-.09-.06-.2-.06-.32,0-.12-.02-.24-.04-.35-.02-.15-.07-.25-.13-.32-.07-.07-.18-.1-.33-.1h-.62v1.1h-.62v-2.81h1.52ZM33.6,47.54c.14,0,.25-.03.32-.09.07-.06.11-.17.11-.31s-.04-.24-.11-.3c-.07-.06-.18-.09-.32-.09h-.68v.79h.68Z"/>
    <path class="cls-2" d="M37.25,46.27v.52h-1.48v.6h1.36v.48h-1.36v.69h1.52v.52h-2.14v-2.81h2.1Z"/>
    <path class="cls-2" d="M39.36,49.06c-.13.06-.27.08-.41.08-.22,0-.41-.04-.58-.11-.17-.07-.32-.18-.44-.31-.12-.13-.21-.29-.27-.46-.06-.18-.09-.37-.09-.57s.03-.4.09-.58c.06-.18.15-.34.27-.47.12-.13.26-.24.44-.31.17-.08.37-.11.58-.11.14,0,.28.02.42.06.14.04.26.11.37.19.11.08.2.19.27.31.07.12.11.27.13.43h-.59c-.04-.16-.11-.28-.21-.35-.11-.08-.23-.12-.38-.12-.14,0-.26.03-.35.08-.1.05-.18.13-.24.22-.06.09-.1.19-.13.31-.03.12-.04.23-.04.36s.01.23.04.34c.03.11.07.21.13.3.06.09.14.16.24.21s.22.08.35.08c.2,0,.36-.05.47-.15.11-.1.18-.25.19-.45h-.62v-.46h1.18v1.52h-.39l-.06-.32c-.11.14-.23.24-.37.3Z"/>
    <path class="cls-2" d="M41.31,46.27v2.81h-.62v-2.81h.62Z"/>
    <path class="cls-2" d="M42.32,48.39c.03.07.08.12.14.16.06.04.12.07.2.09.08.02.15.03.24.03.06,0,.11,0,.18-.01.06,0,.12-.03.18-.05.06-.03.1-.06.14-.11.04-.05.06-.1.06-.18,0-.08-.02-.14-.07-.19-.05-.05-.11-.09-.19-.12-.08-.03-.17-.06-.27-.08-.1-.02-.2-.05-.3-.08-.1-.03-.21-.06-.31-.1-.1-.04-.19-.09-.27-.15-.08-.06-.14-.14-.19-.23-.05-.09-.07-.2-.07-.33,0-.14.03-.27.09-.38.06-.11.14-.19.24-.27.1-.07.21-.12.34-.16.13-.03.25-.05.38-.05.15,0,.29.02.42.05.14.03.26.09.36.16.11.07.19.17.25.28.06.11.09.25.09.42h-.6c0-.08-.02-.15-.05-.21-.03-.06-.07-.1-.12-.13-.05-.03-.11-.05-.17-.07-.06-.01-.13-.02-.21-.02-.05,0-.1,0-.15.02-.05.01-.1.03-.14.06-.04.03-.07.06-.1.1-.03.04-.04.09-.04.15,0,.06.01.1.03.13.02.03.06.07.12.09.06.03.15.06.26.09s.25.07.43.11c.05.01.13.03.22.06s.19.07.28.13c.09.06.17.14.24.24.07.1.1.23.1.39,0,.13-.02.25-.07.36-.05.11-.12.21-.22.29-.1.08-.22.14-.37.19-.15.04-.31.07-.51.07-.15,0-.31-.02-.45-.06-.15-.04-.27-.1-.39-.18-.11-.08-.2-.19-.27-.31-.07-.13-.1-.28-.09-.45h.6c0,.09.02.17.05.24Z"/>
    <path class="cls-2" d="M44.19,46.79v-.52h2.31v.52h-.84v2.29h-.62v-2.29h-.84Z"/>
    <path class="cls-2" d="M48.92,46.27v.52h-1.48v.6h1.36v.48h-1.36v.69h1.52v.52h-2.14v-2.81h2.1Z"/>
    <path class="cls-2" d="M50.88,46.27c.13,0,.24.02.34.06.1.04.19.1.26.17s.13.15.17.25c.04.09.06.19.06.3,0,.17-.03.31-.1.43-.07.12-.18.21-.34.28h0c.08.03.14.06.19.1.05.04.09.09.12.15.03.06.05.12.07.2.01.07.02.14.03.21,0,.04,0,.1,0,.16,0,.06,0,.12.01.19,0,.06.02.12.03.18.01.06.04.1.06.14h-.62c-.03-.09-.06-.2-.06-.32,0-.12-.02-.24-.04-.35-.02-.15-.07-.25-.13-.32-.07-.07-.18-.1-.33-.1h-.62v1.1h-.62v-2.81h1.52ZM50.66,47.54c.14,0,.25-.03.32-.09.07-.06.11-.17.11-.31s-.04-.24-.11-.3c-.07-.06-.18-.09-.32-.09h-.68v.79h.68Z"/>
  </g>
</svg>