<?xml version="1.0" encoding="UTF-8"?>
<svg id="Layer_2" data-name="Layer 2" xmlns="http://www.w3.org/2000/svg" viewBox="0 0 71.46 57.6">
  <defs>
    <style>
      .cls-1 {
        fill: #cee1d4;
      }

      .cls-1, .cls-2, .cls-3, .cls-4 {
        stroke-width: 0px;
      }

      .cls-2 {
        fill: #00793e;
      }

      .cls-3 {
        fill-rule: evenodd;
      }

      .cls-3, .cls-4 {
        fill: #fff;
      }
    </style>
  </defs>
  <path class="cls-4" d="M35.75,2.67l22.14,38.8c3.16,5.45,2.84,12.43-6.64,12.43h-31.63c-8.74,0-9.06-7.03-6.39-11.82,1.91-3.44,22.52-39.41,22.52-39.41"/>
  <path class="cls-2" d="M35.75,5.84l21.06,36.87c2.4,4.21,1.77,9.56-4.3,9.56H18.98c-6.06,0-6.66-5.4-4.27-9.58,2.89-5.06,21.04-36.85,21.04-36.85"/>
  <path class="cls-1" d="M39.05,15.36l-3.29-5.65-9.31,16.48c-1.62,2.79-2.26,5.4-1.5,8.7,1.19,5.18,5.94,8.54,10.61,8.54s9.07-2.9,10.64-7.38c1.24-3.55.6-6.84-1.48-10.44l-1.14,1.99c1.25,2.73,1.67,4.84.91,7.33-1.23,4.07-4.92,6.54-8.72,6.54-3.2,0-6.58-1.76-8.24-5.17-1.57-3.23-1.07-6.35.67-9.19l7.63-13.48,2.22,3.64,1.01-1.93Z"/>
  <polygon class="cls-1" points="39.84 16.76 40.73 18.35 34.2 30.28 31.15 24.7 32.03 23.09 34.2 27.08 39.84 16.76"/>
  <polygon class="cls-1" points="41.43 19.61 42.34 21.19 34.2 36.06 29.57 27.56 30.46 25.98 34.2 32.85 41.43 19.61"/>
  <path class="cls-1" d="M43.01,22.45l.91,1.58-8.99,16.44-1.71-.41-5.18-9.47c.09-.23.14-.36.24-.58.2-.45.33-.69.57-1.12l5.34,9.72,8.82-16.17Z"/>
  <path class="cls-3" d="M20.5,48.05c0-.93.48-1.44,1.37-1.44s1.37.51,1.37,1.44-.48,1.43-1.37,1.43-1.37-.5-1.37-1.43M18.28,48.05c0,1.85,1.21,2.81,3.59,2.81s3.59-.96,3.59-2.81-1.21-2.81-3.59-2.81-3.59.96-3.59,2.81"/>
  <polygon class="cls-4" points="26.69 50.72 28.76 50.72 28.76 48.73 31.41 48.73 31.41 47.42 28.76 47.42 28.76 46.7 32.01 46.7 32.01 45.39 26.69 45.39 26.69 50.72"/>
  <polygon class="cls-4" points="34.92 50.72 36.99 50.72 36.99 46.74 38.92 46.74 38.92 45.39 32.99 45.39 32.99 46.74 34.92 46.74 34.92 50.72"/>
  <polygon class="cls-4" points="40.11 50.72 45.94 50.72 45.94 49.35 42.18 49.35 42.18 48.65 45.08 48.65 45.08 47.33 42.18 47.33 42.18 46.7 45.76 46.7 45.76 45.39 40.11 45.39 40.11 50.72"/>
  <path class="cls-4" d="M51.43,47.63h2.36c-.07-1.52-1.3-2.38-3.53-2.38-2.38,0-3.59.96-3.59,2.81s1.21,2.81,3.59,2.81c2.13,0,3.33-.78,3.54-2.24h-2.39c-.12.58-.52.86-1.16.86-.89,0-1.37-.5-1.37-1.43s.48-1.44,1.37-1.44c.69,0,1.1.35,1.17,1.01"/>
  <polygon class="cls-2" points="47.17 17.4 47.6 17.4 47.6 14.6 48.61 14.6 48.61 14.21 46.16 14.21 46.16 14.6 47.17 14.6 47.17 17.4"/>
  <path class="cls-2" d="M49.39,14.68c.02.1.04.19.07.28l.8,2.44h.41l.82-2.44c.03-.08.05-.17.07-.28v2.72h.42v-3.19h-.62l-.82,2.44c-.03.08-.05.16-.07.26-.01-.07-.04-.15-.07-.26l-.79-2.44h-.62v3.19h.4v-2.72Z"/>
</svg>