<?xml version="1.0" encoding="UTF-8"?>
<svg id="Layer_2" data-name="Layer 2" xmlns="http://www.w3.org/2000/svg" viewBox="0 0 71.46 57.6">
  <defs>
    <style>
      .cls-1 {
        fill: #3a7d32;
        stroke-width: 0px;
      }
    </style>
  </defs>
  <polygon class="cls-1" points="41.31 1.92 39.49 3.45 53.04 14.82 53.04 26.65 25.57 26.69 25.57 15.16 23.22 17.12 23.22 29.04 55.38 28.99 55.38 13.73 41.31 1.92"/>
  <polygon class="cls-1" points="17.23 8.24 10.57 8.23 21.8 15.74 39.84 .47 34.03 .5 21.55 10.94 17.23 8.24"/>
  <path class="cls-1" d="M22.97,33.95v-.21c0-2.16.91-3.25,2.14-3.25.35,0,.62.08.86.19v.98c-.28-.17-.54-.28-.83-.28-.71,0-1.23.76-1.23,2.33v.28c0,1.79.57,2.36,1.16,2.36.08,0,.12,0,.21-.03v-1.97h-.7v-.83h1.55v3.42c-.4.18-.7.28-1.1.28-1.13,0-2.07-.99-2.07-3.26"/>
  <path class="cls-1" d="M26.89,30.54h1.07c1.17,0,2.01.65,2.01,2.06v.06c0,.88-.37,1.45-.89,1.77l1,2.72h-1l-.88-2.42s-.09.01-.13.01h-.25v2.41h-.93v-6.61ZM27.98,33.9c.63,0,1.05-.37,1.05-1.23v-.05c0-.91-.46-1.21-1.07-1.21h-.14v2.49h.16Z"/>
  <polygon class="cls-1" points="30.6 30.54 33.04 30.54 33.04 31.42 31.53 31.42 31.53 33.39 32.88 33.39 32.88 34.27 31.53 34.27 31.53 36.27 33.07 36.27 33.07 37.15 30.6 37.15 30.6 30.54"/>
  <polygon class="cls-1" points="33.7 30.54 36.14 30.54 36.14 31.42 34.63 31.42 34.63 33.39 35.98 33.39 35.98 34.27 34.63 34.27 34.63 36.27 36.17 36.27 36.17 37.15 33.7 37.15 33.7 30.54"/>
  <polygon class="cls-1" points="36.79 30.54 37.68 30.54 39.12 34.55 39.12 30.54 40.02 30.54 40.02 37.15 39.18 37.15 37.7 33 37.7 37.15 36.79 37.15 36.79 30.54"/>
  <path class="cls-1" d="M42.34,30.54h.99c1.4,0,2.24,1.08,2.24,3.2v.21c0,2.12-.85,3.2-2.24,3.2h-.99v-6.61ZM43.42,36.3c.67,0,1.22-.63,1.22-2.35v-.21c0-1.72-.55-2.35-1.23-2.35h-.13v4.91h.14Z"/>
  <polygon class="cls-1" points="46.23 30.54 48.68 30.54 48.68 31.42 47.17 31.42 47.17 33.39 48.52 33.39 48.52 34.27 47.17 34.27 47.17 36.27 48.71 36.27 48.71 37.15 46.23 37.15 46.23 30.54"/>
  <path class="cls-1" d="M50.33,30.52h.99l1.31,6.63h-.94l-.26-1.47h-1.24l-.27,1.47h-.9l1.31-6.63ZM51.3,34.84l-.49-2.65-.48,2.65h.97Z"/>
  <polygon class="cls-1" points="53.13 30.54 54.06 30.54 54.06 36.27 55.41 36.27 55.41 37.15 53.13 37.15 53.13 30.54"/>
  <path class="cls-1" d="M41.64,41.88c-.44,0-.75.69-.75,2.4v.28c0,1.71.31,2.4.75,2.4s.76-.69.76-2.4v-.28c0-1.71-.31-2.4-.76-2.4"/>
  <path class="cls-1" d="M37.32,41.98h-.13v2.5h.16c.63,0,1.05-.38,1.05-1.23v-.06c0-.9-.46-1.21-1.08-1.21"/>
  <path class="cls-1" d="M29.94,41.98h-.14v2.71h.12c.63-.02,1.04-.47,1.04-1.34v-.02c0-.92-.4-1.35-1.02-1.35"/>
  <path class="cls-1" d="M51.95,41.96h-.13v4.91h.14c.68,0,1.22-.63,1.22-2.35v-.2c0-1.72-.55-2.35-1.23-2.35"/>
  <path class="cls-1" d="M33.63,41.98h-.14v2.71h.13c.62-.02,1.03-.47,1.03-1.34v-.02c0-.92-.4-1.35-1.02-1.35"/>
  <polygon class="cls-1" points="25.96 45.41 26.92 45.41 26.44 42.76 25.96 45.41"/>
  <path class="cls-1" d="M23.07,49.58h32.59v-10.44H23.07v10.44ZM27.32,47.73l-.26-1.47h-1.25l-.26,1.47h-.91l1.31-6.63h1l1.3,6.63h-.93ZM31.9,43.32c0,1.41-.8,2.16-1.98,2.23h-.11v2.18h-.94v-6.61h.96c1.24,0,2.07.72,2.07,2.17v.02ZM35.59,43.32c0,1.41-.8,2.16-1.98,2.23h-.12v2.18h-.93v-6.61h.96c1.24,0,2.07.72,2.07,2.17v.02ZM38.44,47.73l-.89-2.42s-.08.01-.12.01h-.25v2.41h-.93v-6.61h1.07c1.18,0,2.01.65,2.01,2.05v.07c0,.88-.37,1.46-.88,1.76l1,2.72h-1ZM43.34,44.57c0,2.23-.7,3.24-1.7,3.24s-1.7-1.02-1.7-3.24v-.28c0-2.23.7-3.25,1.7-3.25s1.7,1.02,1.7,3.25v.28ZM45.85,47.75h-.96l-1.23-6.63h.95l.79,4.77.78-4.77h.91l-1.24,6.63ZM50.15,47.73h-2.47v-6.61h2.44v.87h-1.51v1.97h1.35v.88h-1.35v2.01h1.54v.88ZM54.13,44.52c0,2.13-.85,3.2-2.24,3.2h-1v-6.61h1c1.39,0,2.24,1.07,2.24,3.2v.21Z"/>
  <rect class="cls-1" x="27.27" y="52.88" width=".58" height="4.67"/>
  <path class="cls-1" d="M28.74,54.16h.54v.33c.17-.26.41-.39.91-.39.72,0,1.23.38,1.23,1.32v2.11h-.54v-2.11c0-.68-.37-.83-.77-.83-.51,0-.83.36-.83.83v2.11h-.54v-3.38Z"/>
  <path class="cls-1" d="M34,54.96c-.18-.24-.37-.34-.84-.34-.4,0-.66.15-.66.45,0,.39.34.5.79.53.64.05,1.22.23,1.22,1.01,0,.59-.4,1-1.27,1-.69,0-1.05-.21-1.3-.56l.4-.28c.18.24.43.34.91.34.45,0,.72-.18.72-.48,0-.36-.22-.49-.87-.54-.57-.04-1.13-.27-1.13-1.01,0-.56.41-.96,1.21-.96.55,0,.97.14,1.23.56l-.41.28Z"/>
  <path class="cls-1" d="M34.76,54.16h.43v-.74h.54v.74h.78v.49h-.78v1.72c0,.47.05.66.51.66h.27v.51h-.29c-.8,0-1.03-.34-1.03-1.04v-1.85h-.43v-.49Z"/>
  <path class="cls-1" d="M38.09,55.59h.81v-.39c0-.48-.22-.59-.75-.59-.41,0-.62.03-.81.34l-.41-.28c.24-.39.58-.56,1.22-.56.86,0,1.29.28,1.29,1.09v2.35h-.54v-.33c-.19.31-.42.39-.86.39-.79,0-1.21-.39-1.21-1.04,0-.73.52-.97,1.26-.97M38.89,56.05h-.81c-.53,0-.72.18-.72.52,0,.38.27.53.67.53.5,0,.86-.09.86-.85v-.2Z"/>
  <path class="cls-1" d="M40.12,52.88h.54v3.49c0,.36.02.68.58.68v.5c-.85,0-1.12-.34-1.12-1.04v-3.63Z"/>
  <path class="cls-1" d="M41.77,52.88h.54v3.49c0,.36.02.68.57.68v.5c-.85,0-1.12-.34-1.12-1.04v-3.63Z"/>
  <path class="cls-1" d="M46.09,57.03c-.24.41-.6.57-1.19.57-.91,0-1.45-.59-1.45-1.53v-.45c0-.96.45-1.51,1.34-1.51s1.34.55,1.34,1.51v.35h-2.14v.09c0,.58.28,1.04.87,1.04.44,0,.66-.13.81-.38l.42.3ZM43.99,55.5h1.59c-.03-.57-.28-.91-.79-.91s-.77.34-.8.91"/>
  <path class="cls-1" d="M48.76,54.9c-.14-.2-.32-.28-.57-.28-.41,0-.72.31-.72.82v2.12h-.54v-3.38h.54v.33c.14-.24.37-.39.78-.39.46,0,.75.16.97.46l-.46.32Z"/>
  <polygon class="cls-1" points="50.77 53.7 51.46 53.27 51.69 53.67 50.98 54.06 51.69 54.45 51.46 54.85 50.77 54.43 50.79 55.24 50.33 55.24 50.35 54.43 49.65 54.85 49.42 54.45 50.13 54.06 49.42 53.67 49.65 53.27 50.35 53.7 50.33 52.88 50.79 52.88 50.77 53.7"/>
</svg>