<?xml version="1.0" encoding="UTF-8"?>
<svg id="Layer_2" data-name="Layer 2" xmlns="http://www.w3.org/2000/svg" viewBox="0 0 89.74 57.6">
  <defs>
    <style>
      .cls-1 {
        fill: #05a8a9;
      }

      .cls-1, .cls-2, .cls-3 {
        stroke-width: 0px;
      }

      .cls-2 {
        fill: #4d5f85;
      }

      .cls-3 {
        fill: #1b2c4c;
      }
    </style>
  </defs>
  <path class="cls-1" d="M44.97,7.27l-3.64-2.1c-.55-.32-1.23-.32-1.78,0l-9.53,5.5c-.55.32-.89.91-.89,1.54v4.2l15.84-9.15Z"/>
  <path class="cls-1" d="M30.02,24.77l1.37.79,20.37-11.76v-1.58c0-.64-.34-1.23-.89-1.54l-1.37-.79-20.37,11.76v1.59c0,.64.34,1.23.89,1.54"/>
  <path class="cls-1" d="M35.92,28.18l3.63,2.1c.55.32,1.23.32,1.78,0l10.42-6.02v-5.23l-15.84,9.15Z"/>
  <path class="cls-3" d="M54.02,7.27l-3.64-2.1c-.55-.32-1.23-.32-1.78,0l-10.42,6.02v5.23l15.84-9.15Z"/>
  <path class="cls-3" d="M39.07,24.77l1.37.79,20.37-11.76v-1.58c0-.64-.34-1.23-.89-1.54l-1.37-.79-20.37,11.76v1.59c0,.64.34,1.23.89,1.54"/>
  <path class="cls-3" d="M44.97,28.18l3.63,2.1c.55.32,1.23.32,1.78,0l9.53-5.5c.55-.32.89-.91.89-1.54v-4.2l-15.84,9.15Z"/>
  <polygon class="cls-2" points="77.54 37.05 77.54 46.61 79.6 46.61 79.6 41.66 79.6 37.05 77.54 37.05"/>
  <polygon class="cls-2" points="82.2 41.51 86.03 37.05 83.37 37.05 79.6 41.66 80.64 42.86 83.7 46.61 86.3 46.61 82.2 41.51"/>
  <polygon class="cls-3" points="3.33 38.63 6.24 38.63 6.24 46.49 6.63 46.49 8.25 45.52 8.25 38.63 11.15 38.63 11.15 36.9 3.33 36.9 3.33 38.63"/>
  <path class="cls-3" d="M19.82,39.89c0-1.78-1.09-2.99-3.83-2.99h-3.58v9.58h2.01v-3.23h1.64s1.95,3.23,1.95,3.23h2.23l-2.27-3.63c1.12-.49,1.85-1.45,1.85-2.97M15.99,41.53h-1.58v-2.91h1.45c1.3,0,1.81.49,1.81,1.39,0,.96-.64,1.52-1.69,1.52"/>
  <path class="cls-3" d="M35.16,40.97c-1.45-.52-2.43-.71-2.43-1.51,0-.66.55-1.03,1.44-1.03.78,0,1.67.28,2.32.74l.85-1.5c-.64-.48-1.79-.94-3.22-.94-2.06,0-3.48,1.02-3.48,2.81,0,1.58,1.08,2.26,2.63,2.78,1.36.45,2.21.67,2.21,1.4,0,.64-.56,1.07-1.72,1.07-.86,0-1.83-.25-2.65-.68l-.62,1.66c1,.61,2.29.89,3.37.89,2.21,0,3.74-1.1,3.74-3.05,0-1.43-.9-2.08-2.46-2.63"/>
  <polygon class="cls-3" points="38.34 38.63 41.25 38.63 41.25 46.49 41.65 46.49 43.26 45.52 43.26 38.63 46.16 38.63 46.16 36.9 38.34 36.9 38.34 38.63"/>
  <polygon class="cls-2" points="52.56 43.82 49.34 36.9 47.42 36.9 47.42 46.49 49.34 46.49 49.34 40.66 51.92 46.21 53.05 46.21 55.68 40.61 55.68 46.49 57.6 46.49 57.6 36.9 55.66 36.9 52.56 43.82"/>
  <polygon class="cls-2" points="62.07 36.9 58.47 46.49 60.58 46.49 63.06 39.19 65.61 46.49 67.78 46.49 64.08 36.9 62.07 36.9"/>
  <path class="cls-2" d="M76.05,39.89c0-1.78-1.09-2.99-3.83-2.99h-3.58v9.58h2.01v-3.23h1.64s1.95,3.23,1.95,3.23h2.23l-2.27-3.63c1.12-.49,1.85-1.45,1.85-2.97M72.22,41.53h-1.58v-2.91h1.45c1.3,0,1.81.49,1.81,1.39,0,.96-.64,1.52-1.69,1.52"/>
  <path class="cls-3" d="M27.13,37.87v5.1c0,.4.06.83-.02,1.23-.07.35-.41.49-.71.58-.42.11-.88.15-1.31.13-.38-.01-.76-.07-1.13-.17-.3-.08-.52-.26-.57-.58-.06-.38-.01-.79-.01-1.18v-6.07h-.39l-1.62.97v2.15s0,2.99,0,2.99v.82c-.01.22,0,.91.45,1.55.04.06.09.12.14.18.6.7,1.84,1.13,3.24,1.13.02,0,.04,0,.06,0,.02,0,.04,0,.06,0,1.39,0,2.63-.44,3.24-1.13.05-.06.09-.12.14-.18.45-.64.46-1.33.45-1.55,0,0,0-.82,0-.82v-6.11h-.33l-1.68.97Z"/>
  <path class="cls-2" d="M5.86,50.36c.04-.19.1-.38.19-.57.09-.19.2-.36.34-.5.13-.14.3-.26.52-.34.21-.09.45-.13.72-.13.64,0,1.13.29,1.48.85l-.58.41c-.15-.22-.29-.36-.45-.44-.15-.08-.32-.12-.49-.12s-.33.04-.46.12c-.13.08-.24.19-.32.33-.08.13-.14.29-.18.46-.04.17-.06.35-.06.54,0,.46.09.82.25,1.08.17.26.42.4.75.4.16,0,.31-.05.47-.14.15-.09.29-.22.4-.37v-.45h-.86v-.62h1.57v2.21s-.61,0-.61,0l-.03-.4c-.32.32-.66.48-1.03.48-.25,0-.47-.04-.67-.12-.2-.08-.36-.19-.49-.32-.12-.13-.23-.29-.31-.49-.09-.19-.14-.39-.18-.59-.03-.2-.05-.43-.05-.66h0c0-.2.02-.4.05-.59"/>
  <path class="cls-2" d="M9.89,51.13c.02-.07.03-.14.06-.21.02-.07.05-.14.09-.21.07-.14.15-.27.26-.37.1-.11.23-.2.4-.27.16-.07.34-.11.54-.11.21,0,.39.03.55.1.16.07.29.16.39.27s.19.23.25.37c.07.14.12.28.14.42.03.14.04.27.04.41,0,.07,0,.15-.01.22-.01.07-.02.15-.04.22-.03.15-.08.29-.15.43-.07.14-.16.26-.26.37-.1.1-.23.19-.39.25-.15.06-.33.1-.52.1s-.36-.03-.53-.1c-.16-.06-.29-.15-.39-.26-.1-.1-.19-.22-.26-.37-.07-.13-.12-.28-.15-.43-.03-.15-.05-.29-.05-.44h0c0-.13.01-.27.04-.41M10.74,52.22c.13.19.29.29.49.29s.37-.1.49-.28c.12-.19.18-.42.18-.68,0-.28-.06-.51-.17-.69-.12-.18-.28-.27-.5-.27-.14,0-.27.05-.38.14-.11.1-.18.21-.23.35-.05.14-.07.3-.07.46,0,.26.06.49.19.68"/>
  <path class="cls-2" d="M14.07,51.22c.09.28.14.45.16.5l.11.4h.02c.03-.12.06-.21.07-.27.02-.06.03-.11.04-.12l.55-1.72h.78l-1.14,3.04h-.61l-1.15-3.04h.77c.17.52.3.93.4,1.21"/>
  <path class="cls-2" d="M16.21,50.76c.1-.25.26-.44.48-.58s.47-.22.78-.22c.18,0,.35.03.5.09.15.06.27.14.36.24.09.1.17.22.24.35.06.14.11.28.13.42.01.07.02.14.03.21,0,.07.01.15.01.22v.04s0,.02,0,.03c0,.01,0,.03,0,.04,0,.04,0,.08-.01.12h-1.96c0,.24.07.43.18.58.11.14.27.21.48.21.16,0,.3-.03.43-.1.12-.06.24-.18.35-.36l.51.34c-.16.27-.34.45-.53.56-.2.11-.46.16-.78.16-.18,0-.35-.03-.5-.09-.15-.06-.28-.14-.38-.24-.1-.1-.18-.22-.25-.35-.07-.13-.12-.27-.15-.41-.03-.13-.04-.28-.04-.42h0c0-.33.05-.61.15-.85M17.85,50.75c-.1-.12-.25-.18-.43-.18s-.31.06-.43.19c-.11.13-.19.29-.21.48h1.25c-.02-.2-.08-.37-.18-.49"/>
  <path class="cls-2" d="M20.02,50l.05.4c.05-.07.1-.12.13-.17.03-.04.08-.09.14-.13.06-.05.12-.08.18-.11.07-.02.14-.04.22-.05,0,0,.02,0,.04,0,.05,0,.11.01.19.03.09.03.16.06.23.1l-.19.62c-.15-.05-.25-.08-.3-.08-.13,0-.25.04-.34.13-.09.09-.17.21-.25.37v1.93h-.69v-3.04s.58,0,.58,0Z"/>
  <path class="cls-2" d="M22.45,50l.02.43c.12-.15.25-.27.38-.34.13-.07.28-.12.44-.13.02,0,.03,0,.05,0h.05c.11,0,.22.02.31.05.12.04.22.1.29.18.08.08.14.18.19.29.05.11.09.23.11.35,0,.06.02.12.02.19,0,.06,0,.13,0,.2v1.83h-.7v-1.83c0-.4-.16-.6-.47-.6-.14,0-.26.05-.36.15-.11.1-.2.23-.28.38v1.9s-.7,0-.7,0v-3.05h.65Z"/>
  <path class="cls-2" d="M25.79,50.01l.06.44c.13-.15.26-.27.38-.34.11-.07.25-.12.4-.13.02,0,.03,0,.05,0h.21c.08.02.17.05.26.09.09.04.17.1.25.18.07.08.13.18.18.3.03-.04.06-.07.09-.1.03-.03.05-.06.07-.09.05-.05.11-.11.18-.17.07-.06.15-.11.23-.14.08-.04.17-.06.26-.07.02,0,.04,0,.06,0h.06c.15,0,.28.03.4.07.15.05.26.14.34.26.08.12.14.25.18.4.04.15.06.32.06.51v1.85h-.71v-1.86c0-.19-.04-.34-.11-.45-.07-.1-.18-.15-.32-.15-.02,0-.03,0-.04,0-.14,0-.26.06-.36.16-.1.1-.18.22-.24.36v1.92s-.71,0-.71,0v-1.86c0-.18-.04-.33-.12-.44-.07-.1-.17-.15-.3-.15h-.02s-.02,0-.02,0c-.27.02-.48.2-.64.55v1.9h-.71l-.02-3.04h.61Z"/>
  <path class="cls-2" d="M30.34,50.76c.1-.25.26-.44.48-.58s.47-.22.78-.22c.18,0,.35.03.49.09.15.06.27.14.36.24.09.1.17.22.23.35.06.14.11.28.13.42.01.07.02.14.03.21,0,.07.01.15.01.22v.07s0,.03,0,.04c0,.04,0,.08,0,.12h-1.96c0,.24.07.43.18.58.11.14.27.21.48.21.16,0,.3-.03.43-.1.12-.06.24-.18.35-.36l.51.34c-.16.27-.34.45-.54.56-.2.11-.46.16-.78.16-.18,0-.35-.03-.5-.09-.15-.06-.28-.14-.37-.24-.1-.1-.18-.22-.26-.35-.07-.13-.12-.27-.15-.41-.03-.13-.04-.28-.04-.42h0c0-.33.05-.61.15-.85M31.98,50.75c-.1-.12-.25-.18-.43-.18s-.31.06-.43.19c-.11.13-.18.29-.21.48h1.25c-.02-.2-.08-.37-.19-.49"/>
  <path class="cls-2" d="M34.23,50l.02.43c.12-.15.25-.27.38-.34.13-.07.28-.12.44-.13.02,0,.03,0,.05,0h.05c.11,0,.22.02.31.05.12.04.22.1.29.18.08.08.14.18.19.29.05.11.09.23.11.35,0,.06.02.12.02.19,0,.06,0,.13,0,.2v1.83h-.7v-1.83c0-.4-.16-.6-.47-.6-.14,0-.26.05-.36.15-.11.1-.2.23-.28.38v1.9s-.7,0-.7,0v-3.05h.65Z"/>
  <path class="cls-2" d="M37.07,50v-.66l.69-.26v.92h.64v.57h-.64v1.67c0,.09.02.15.06.2.04.05.11.07.2.07.01,0,.04,0,.09-.01.04,0,.11-.02.19-.03l.09.51c-.19.06-.34.1-.46.1-.14,0-.26-.02-.36-.05-.11-.03-.19-.07-.25-.12-.06-.05-.11-.11-.15-.18-.04-.07-.06-.14-.08-.22,0-.04-.01-.07-.02-.12,0-.04,0-.08,0-.13v-1.7h-.47v-.57s.49,0,.49,0Z"/>
  <polygon class="cls-2" points="43.3 48.86 43.26 49.54 41.31 49.54 41.31 50.59 43.04 50.59 42.99 51.24 41.31 51.24 41.31 52.35 43.33 52.35 43.29 53.05 40.57 53.05 40.57 48.86 43.3 48.86"/>
  <path class="cls-2" d="M44.73,50l.02.43c.12-.15.25-.27.38-.34.13-.07.28-.12.44-.13.02,0,.03,0,.05,0h.05c.11,0,.22.02.31.05.12.04.22.1.29.18.08.08.14.18.19.29.05.11.08.23.1.35.01.06.02.12.02.19,0,.06,0,.13,0,.2v1.83h-.7v-1.83c0-.4-.16-.6-.47-.6-.14,0-.26.05-.37.15s-.2.23-.28.38v1.9s-.7,0-.7,0v-3.05h.65Z"/>
  <path class="cls-2" d="M47.32,51.16c.02-.15.07-.29.13-.44.06-.15.14-.28.24-.39.1-.11.22-.2.37-.27.15-.07.33-.11.52-.11.29,0,.56.13.82.4v-1.44l.69-.26v4.39h-.62l-.03-.41c-.14.16-.29.29-.44.37-.15.09-.31.13-.5.13s-.34-.03-.48-.09c-.14-.06-.26-.14-.35-.24-.09-.1-.17-.22-.23-.35-.06-.13-.11-.27-.14-.41-.03-.14-.04-.28-.04-.42h0c0-.15.02-.3.04-.45M48.07,51.99c.04.13.11.25.21.34.1.09.22.14.37.14.17,0,.31-.05.44-.15.13-.1.23-.22.3-.38v-.86c-.07-.14-.17-.25-.29-.33-.13-.09-.27-.13-.42-.13-.12,0-.23.03-.32.08-.09.05-.16.13-.21.22-.05.09-.09.19-.11.3-.02.11-.03.23-.03.35h-.01c0,.15.02.29.06.43"/>
  <path class="cls-2" d="M50.88,51.13c.02-.07.03-.14.06-.21.03-.07.05-.14.09-.21.07-.14.15-.27.26-.37.1-.11.23-.2.4-.27.16-.07.34-.11.54-.11.21,0,.39.03.55.1.16.07.29.16.39.27.1.11.18.23.25.37.06.14.11.28.14.42.03.14.04.27.04.41,0,.07,0,.15-.01.22-.01.07-.02.15-.04.22-.03.15-.08.29-.15.43-.07.14-.16.26-.26.37-.1.1-.23.19-.39.25-.15.06-.33.1-.52.1s-.36-.03-.53-.1c-.16-.06-.29-.15-.39-.26-.1-.1-.19-.22-.26-.37-.07-.13-.12-.28-.15-.43-.03-.15-.05-.29-.05-.44h0c0-.13.01-.27.04-.41M51.73,52.22c.13.19.29.29.49.29s.37-.1.49-.28c.12-.19.18-.42.18-.68,0-.28-.06-.51-.17-.69-.12-.18-.28-.27-.5-.27-.14,0-.27.05-.38.14s-.19.21-.23.35c-.05.14-.07.3-.07.46,0,.26.06.49.19.68"/>
  <path class="cls-2" d="M54.89,50l.05.4c.05-.07.1-.12.13-.17.03-.04.08-.09.14-.13.06-.05.12-.08.18-.11.07-.02.14-.04.22-.05,0,0,.02,0,.04,0,.05,0,.11.01.19.03.09.03.16.06.23.1l-.19.62c-.15-.05-.25-.08-.3-.08-.13,0-.25.04-.34.13-.09.09-.17.21-.25.37v1.93h-.69v-3.04s.58,0,.58,0Z"/>
  <path class="cls-2" d="M57.58,52.51c.12,0,.23-.03.33-.1.1-.06.15-.15.15-.27,0-.06-.03-.11-.09-.16-.05-.04-.13-.08-.22-.11-.09-.03-.18-.06-.3-.09-.11-.03-.22-.07-.33-.11-.11-.04-.21-.09-.3-.15-.09-.06-.16-.14-.22-.23-.05-.1-.08-.22-.08-.35,0-.3.1-.54.3-.72.2-.18.45-.27.75-.27.24,0,.46.05.65.17.19.11.35.27.47.47l-.52.35c-.16-.24-.36-.37-.62-.37-.1,0-.18.03-.25.09-.07.05-.1.13-.1.23,0,.06.03.11.08.15.06.04.13.08.22.11.05.01.09.03.14.04.05.02.1.03.16.04s.11.03.16.05c.05.02.11.04.16.06.05.02.11.05.16.07.05.02.1.05.14.08.09.06.16.14.22.24.06.11.09.22.09.36,0,.3-.11.54-.32.73-.22.19-.48.28-.78.28s-.56-.05-.75-.15c-.19-.1-.36-.28-.51-.54l.51-.35c.18.29.4.43.68.43"/>
  <path class="cls-2" d="M59.45,50.76c.1-.25.26-.44.48-.58s.47-.22.78-.22c.18,0,.35.03.5.09.15.06.27.14.36.24.09.1.17.22.23.35.06.14.11.28.13.42.01.07.02.14.03.21,0,.07.01.15.01.22v.04s0,.02,0,.03c0,.01,0,.03,0,.04,0,.04,0,.08,0,.12h-1.96c0,.24.07.43.18.58.11.14.27.21.48.21.16,0,.3-.03.43-.1.12-.06.24-.18.35-.36l.51.34c-.16.27-.34.45-.53.56-.2.11-.46.16-.78.16-.18,0-.35-.03-.5-.09-.15-.06-.28-.14-.37-.24-.1-.1-.19-.22-.26-.35-.07-.13-.12-.27-.15-.41-.03-.13-.04-.28-.04-.42h0c0-.33.05-.61.15-.85M61.09,50.75c-.1-.12-.25-.18-.43-.18s-.31.06-.43.19c-.11.13-.18.29-.21.48h1.25c-.02-.2-.08-.37-.18-.49"/>
  <path class="cls-2" d="M62.6,51.16c.02-.15.07-.29.13-.44.06-.15.14-.28.24-.39.09-.11.22-.2.37-.27.16-.07.33-.11.52-.11.29,0,.56.13.82.4v-1.44l.69-.26v4.39h-.62l-.03-.41c-.14.16-.29.29-.44.37-.15.09-.31.13-.5.13s-.34-.03-.48-.09c-.14-.06-.26-.14-.35-.24-.09-.1-.17-.22-.23-.35-.06-.13-.11-.27-.14-.41-.03-.14-.04-.28-.04-.42h0c0-.15.01-.3.04-.45M63.34,51.99c.04.13.11.25.21.34.1.09.22.14.37.14.17,0,.31-.05.44-.15.13-.1.23-.22.3-.38v-.86c-.07-.14-.17-.25-.29-.33-.12-.09-.27-.13-.42-.13-.13,0-.23.03-.32.08-.09.05-.16.13-.21.22-.05.09-.09.19-.11.3-.02.11-.03.23-.03.35h-.01c0,.15.02.29.06.43"/>
  <path class="cls-2" d="M67.75,50.31c.04-.2.11-.39.2-.58.09-.18.2-.34.33-.48.13-.14.29-.25.49-.34.19-.08.4-.12.64-.12s.44.04.62.12c.19.08.35.19.48.33.13.14.24.3.33.48.09.19.16.38.21.58.05.21.07.42.07.64,0,.28-.04.57-.12.86-.08.29-.2.55-.37.76l.4.61-.46.36-.39-.59c-.23.12-.49.18-.78.18-.19,0-.36-.02-.52-.07-.16-.05-.29-.11-.41-.19-.11-.08-.22-.18-.31-.29-.09-.11-.17-.23-.23-.36-.03-.06-.05-.13-.08-.2-.02-.07-.05-.14-.07-.21-.04-.14-.07-.29-.08-.42-.02-.13-.03-.27-.03-.42v-.02c0-.2.03-.41.07-.61M68.44,51.12c0,.07.01.13.02.2.02.13.05.26.1.4.05.13.11.25.18.35.07.1.16.18.27.25.11.06.23.1.37.1s.27-.03.38-.09l-.45-.69.46-.36s.04.06.08.12c.02.03.04.06.06.1.02.04.05.08.08.12.03.05.06.09.09.13.03.04.05.08.08.12.11-.26.17-.57.17-.92,0-.06,0-.12,0-.19,0-.06-.01-.12-.02-.19-.02-.13-.05-.26-.1-.38-.05-.13-.11-.25-.18-.34-.07-.1-.16-.19-.27-.25-.11-.06-.23-.1-.36-.1-.12,0-.22.02-.32.07-.1.05-.18.11-.24.19-.07.08-.12.17-.18.27-.05.1-.09.2-.12.31-.01.05-.03.11-.04.16-.01.05-.02.11-.03.16,0,.05-.01.1-.01.15,0,.05,0,.1,0,.14h-.02c0,.06,0,.13,0,.19"/>
  <path class="cls-2" d="M72.58,50.01v1.87c0,.4.16.6.48.6.13,0,.25-.05.36-.15.11-.1.2-.23.28-.38v-1.94s.7,0,.7,0v3.04h-.62l-.05-.39c-.13.15-.25.27-.38.34-.13.07-.28.11-.44.12-.02,0-.03,0-.05,0h-.05c-.11,0-.21-.02-.31-.05-.12-.04-.22-.1-.29-.18-.07-.08-.14-.18-.19-.28s-.08-.22-.1-.35c0-.06-.02-.13-.02-.19,0-.06,0-.13,0-.2v-1.87s.7,0,.7,0Z"/>
  <path class="cls-2" d="M75.1,51.85c.03-.09.06-.16.1-.22.04-.06.1-.12.17-.17.07-.05.14-.09.2-.12.03-.02.07-.03.11-.05.04-.02.09-.03.13-.04.05-.01.09-.02.13-.03.04,0,.08-.02.12-.02.04,0,.08-.01.12-.02.04,0,.09-.01.15-.01.1,0,.19-.01.26-.02.03,0,.07,0,.11,0h.14c0-.21-.03-.35-.1-.43-.07-.08-.19-.12-.38-.12-.13,0-.26.02-.37.06-.11.04-.24.11-.38.21l-.34-.48c.29-.27.65-.41,1.08-.41.16,0,.29.02.41.04.12.03.22.07.31.12.09.05.16.11.21.19.06.08.11.16.14.23.03.07.06.17.08.28,0,.06.02.11.02.16,0,.05.01.1.02.15,0,.1,0,.21,0,.34v1.57h-.58c0-.11-.02-.2-.02-.26,0-.06,0-.11,0-.13-.12.13-.26.24-.42.34-.15.09-.31.14-.48.14-.29,0-.52-.1-.69-.28-.17-.18-.25-.42-.25-.72h0c0-.09.01-.19.04-.28M75.86,52.44c.07.07.17.1.3.1.12,0,.25-.04.37-.13.12-.09.22-.19.29-.31v-.49h-.2s-.05,0-.09,0c-.03,0-.06,0-.09,0-.03,0-.05,0-.07,0-.04,0-.09.02-.15.03-.06.01-.11.03-.15.04-.04.02-.08.04-.12.07-.05.03-.08.06-.11.09-.03.04-.05.08-.06.12-.02.05-.03.1-.03.16h0c0,.14.03.23.1.3"/>
  <path class="cls-2" d="M78.96,48.65v3.61c0,.09.02.16.05.19.03.04.09.05.16.05,0,0,.02,0,.03,0,.01,0,.02,0,.03,0,.01,0,.03,0,.04,0,.01,0,.03,0,.05-.01l.12-.02.09.51c-.18.07-.33.1-.44.1-.13,0-.25-.02-.35-.05-.1-.03-.18-.07-.24-.12-.06-.05-.1-.11-.14-.19-.03-.07-.06-.15-.07-.22-.01-.07-.02-.15-.02-.24v-3.36s.69-.26.69-.26Z"/>
  <path class="cls-2" d="M80.85,50.01v3.04h-.69v-2.47h-.31v-.57h1ZM80.17,48.73c.1-.1.21-.14.33-.14s.24.05.33.14c.09.1.14.21.14.34s-.05.24-.14.34c-.1.1-.21.14-.33.14s-.24-.05-.33-.14c-.1-.1-.14-.21-.14-.34h0c0-.13.05-.24.14-.34"/>
  <path class="cls-2" d="M81.88,50v-.66l.68-.26v.92h.65v.57h-.65v1.67c0,.09.02.15.06.2.04.05.11.07.2.07.01,0,.04,0,.08-.01.05,0,.11-.02.19-.03l.09.51c-.19.06-.35.1-.46.1-.14,0-.26-.02-.37-.05-.11-.03-.19-.07-.25-.12s-.11-.11-.15-.18c-.04-.07-.06-.14-.08-.22,0-.04-.01-.07-.02-.12,0-.04,0-.08,0-.13v-1.7h-.47v-.57s.49,0,.49,0Z"/>
  <path class="cls-2" d="M84.79,51.44l.19.64h.02c.1-.33.16-.53.19-.63l.45-1.43h.77l-1.24,3.53c-.09.26-.2.45-.34.56-.14.11-.34.16-.62.16-.11,0-.26-.03-.45-.08l.09-.57s.03,0,.04,0c.02,0,.04,0,.06.01.04.01.08.02.12.03.04,0,.07,0,.1,0,.05,0,.09,0,.12-.02.03-.01.06-.03.09-.07.05-.07.14-.28.28-.65l-1.12-2.95h.77c.29.88.44,1.36.47,1.43"/>
</svg>