<?xml version="1.0" encoding="UTF-8"?>
<svg id="Layer_2" data-name="Layer 2" xmlns="http://www.w3.org/2000/svg" viewBox="0 0 89.74 57.6">
  <defs>
    <style>
      .cls-1 {
        fill: #c0d235;
      }

      .cls-1, .cls-2, .cls-3, .cls-4, .cls-5 {
        stroke-width: 0px;
      }

      .cls-2 {
        fill: #95c11f;
      }

      .cls-3 {
        fill: #878787;
      }

      .cls-4 {
        fill: #b1deec;
      }

      .cls-5 {
        fill: #312c62;
      }
    </style>
  </defs>
  <path class="cls-3" d="M32.95,45.71h-.83v.98h.85c.33,0,.54-.2.54-.49s-.22-.5-.55-.5M33.54,48.19l-.61-1.15h-.82v1.15h-.4v-2.85h1.25c.59,0,.95.33.95.83,0,.4-.25.68-.59.8l.66,1.22h-.45Z"/>
  <path class="cls-3" d="M34.49,48.19h.37v-2.22h-.37v2.22ZM34.49,45.53h.37v-.39h-.37v.39Z"/>
  <path class="cls-3" d="M36.48,46.26c-.47,0-.7.34-.7.74s.23.75.7.75.73-.34.73-.75-.25-.74-.73-.74M37.58,47.83c0,.34-.06.6-.24.8-.22.25-.56.35-.94.35s-.67-.09-.93-.27l.19-.3c.2.14.45.23.74.23.45,0,.8-.21.8-.73v-.24c-.18.28-.5.41-.81.41-.59,0-1-.46-1-1.08s.43-1.09,1.02-1.09c.32,0,.62.13.79.42v-.37h.37v1.86Z"/>
  <path class="cls-3" d="M38.24,48.19v-3.05h.37v1.2c.18-.27.44-.42.76-.42.48,0,.78.31.78.84v1.43h-.37v-1.35c0-.27-.08-.58-.5-.58-.38,0-.67.28-.67.69v1.23h-.37Z"/>
  <path class="cls-3" d="M42.09,48.1c-.13.1-.3.15-.48.15-.26,0-.46-.09-.58-.28-.07-.11-.09-.23-.09-.44v-1.24h-.39v-.31h.39v-.62h.37v.62h.72v.31h-.72v1.24c0,.26.12.38.34.38.13,0,.23-.05.29-.09l.16.28Z"/>
  <path class="cls-3" d="M45.08,45.97h.37v2.22h-.37v-2.22ZM45.08,45.14h.37v.39h-.37v-.39ZM44.75,45.45c-.07-.02-.16-.04-.27-.04-.21,0-.31.08-.31.29v.27h.52v.31h-.52v1.92h-.37v-1.92h-.38v-.31h.38v-.26c0-.41.26-.62.66-.62.12,0,.26.02.34.05l-.05.31Z"/>
  <path class="cls-3" d="M47.32,46.36c-.07-.04-.15-.07-.26-.07-.3,0-.57.26-.57.74v1.16h-.37v-2.22h.37v.38c.15-.24.37-.42.65-.42.13,0,.24.04.3.08l-.12.36Z"/>
  <path class="cls-3" d="M48.58,48.25c-.44,0-.78-.17-.98-.47l.27-.21c.17.24.43.36.73.36s.52-.12.52-.36c0-.23-.2-.27-.61-.35-.44-.08-.8-.21-.8-.65s.4-.65.83-.65.73.19.9.37l-.25.24c-.16-.18-.39-.29-.66-.29-.24,0-.47.08-.47.3,0,.23.25.28.55.33.44.09.87.19.87.66,0,.42-.34.71-.91.71"/>
  <path class="cls-3" d="M51.3,48.1c-.13.1-.3.15-.48.15-.26,0-.46-.09-.58-.28-.07-.11-.09-.23-.09-.44v-1.24h-.38v-.31h.38v-.62h.37v.62h.72v.31h-.72v1.24c0,.26.12.38.34.38.13,0,.23-.05.29-.09l.16.28Z"/>
  <path class="cls-3" d="M54.14,48.1c-.13.1-.3.15-.48.15-.26,0-.46-.09-.58-.28-.07-.11-.09-.23-.09-.44v-1.24h-.39v-.31h.39v-.62h.37v.62h.72v.31h-.72v1.24c0,.26.12.38.34.38.13,0,.23-.05.29-.09l.16.28Z"/>
  <path class="cls-3" d="M54.54,48.19h.37v-2.22h-.37v2.22ZM54.54,45.53h.37v-.39h-.37v.39Z"/>
  <path class="cls-3" d="M55.58,48.19v-2.22h.37v.36c.18-.27.41-.41.72-.41.33,0,.56.16.67.45.18-.28.45-.45.79-.45.47,0,.75.31.75.83v1.45h-.37v-1.36c0-.28-.08-.56-.47-.56-.35,0-.63.27-.63.68v1.24h-.37v-1.36c0-.28-.07-.56-.47-.56-.36,0-.62.27-.62.68v1.24h-.37Z"/>
  <path class="cls-3" d="M61.14,46.89c-.04-.43-.33-.65-.68-.65-.39,0-.65.27-.68.65h1.36ZM61.52,47.17h-1.74c.02.46.31.73.75.73.26,0,.48-.1.66-.29l.25.24c-.23.24-.52.39-.92.39-.72,0-1.14-.5-1.14-1.16s.41-1.17,1.09-1.17,1.06.49,1.06,1.11c0,.07,0,.12,0,.15"/>
  <rect class="cls-5" x="31.71" y="43.31" width="57.28" height=".27"/>
  <rect class="cls-5" x="33.41" y="31.27" width=".73" height="4.18"/>
  <path class="cls-5" d="M34.87,35.46v-3.3h.69v.48c.27-.36.63-.56,1.08-.56.72,0,1.14.48,1.14,1.22v2.15h-.69v-1.99c0-.35-.11-.75-.65-.75-.49,0-.87.35-.87.89v1.85h-.69Z"/>
  <path class="cls-5" d="M39.66,35.53c-.67,0-1.22-.26-1.53-.74l.49-.35c.25.35.65.52,1.08.52s.68-.15.68-.44-.3-.36-.84-.45c-.69-.12-1.24-.31-1.24-.99s.61-1,1.29-1,1.15.29,1.42.58l-.44.4c-.22-.25-.57-.41-.99-.41-.31,0-.62.11-.62.37,0,.29.35.35.78.43.7.13,1.31.31,1.31,1.01,0,.65-.53,1.08-1.41,1.08"/>
  <path class="cls-5" d="M44.39,32.16v3.3h-.69v-.48c-.27.35-.63.55-1.08.55-.72,0-1.14-.48-1.14-1.23v-2.15h.69v1.99c0,.35.11.75.65.75.49,0,.87-.35.87-.89v-1.85h.69Z"/>
  <rect class="cls-5" x="45.07" y="30.97" width=".69" height="4.49"/>
  <path class="cls-5" d="M48.33,33.7c-.19.24-.47.24-.82.3-.35.06-.61.16-.61.5s.26.49.6.49c.43,0,.83-.23.83-.79v-.5ZM49.09,35.51c-.31,0-.59-.14-.66-.49-.27.39-.71.52-1.1.52-.68,0-1.13-.37-1.13-1.02,0-.82.72-.94,1.29-1.01.48-.05.84-.09.84-.41s-.36-.42-.67-.42c-.34,0-.72.11-1.03.33l-.28-.52c.41-.26.84-.4,1.36-.4.78,0,1.33.31,1.33,1.11v1.5c0,.21.07.3.23.3.06,0,.14-.01.18-.04l.08.48c-.11.06-.3.08-.43.08"/>
  <path class="cls-5" d="M51.81,35.29c-.21.16-.46.25-.78.25-.4,0-.71-.13-.89-.42-.11-.17-.16-.37-.16-.69v-1.73h-.55v-.53h.55v-.89h.7v.89h1.02v.53h-1.02v1.73c0,.33.16.49.45.49.18,0,.32-.07.41-.14l.28.52Z"/>
  <path class="cls-5" d="M52.12,35.46h.69v-3.3h-.69v3.3ZM52.12,31.62h.69v-.65h-.69v.65Z"/>
  <path class="cls-5" d="M54.94,32.69c-.6,0-.94.48-.94,1.12s.34,1.12.94,1.12.93-.48.93-1.12-.33-1.12-.93-1.12M54.94,35.53c-1.02,0-1.67-.72-1.67-1.72s.65-1.73,1.67-1.73,1.67.72,1.67,1.73-.65,1.72-1.67,1.72"/>
  <path class="cls-5" d="M57.07,35.46v-3.3h.69v.48c.27-.36.63-.56,1.08-.56.72,0,1.14.48,1.14,1.22v2.15h-.69v-1.99c0-.35-.11-.75-.65-.75-.49,0-.87.35-.87.89v1.85h-.69Z"/>
  <path class="cls-5" d="M33.76,37.38l-.68,1.85h1.34l-.66-1.85ZM35.02,40.92l-.4-1.07h-1.73l-.4,1.07h-.8l1.64-4.18h.87l1.64,4.18h-.82Z"/>
  <path class="cls-5" d="M37.34,40.99c-.67,0-1.22-.26-1.53-.74l.49-.35c.25.35.65.52,1.08.52s.68-.15.68-.44-.3-.36-.84-.45c-.69-.12-1.24-.31-1.24-.99s.61-1,1.29-1,1.15.29,1.42.58l-.44.4c-.22-.25-.57-.41-.99-.41-.31,0-.62.11-.62.37,0,.29.35.35.78.43.7.13,1.31.31,1.31,1,0,.65-.53,1.08-1.41,1.08"/>
  <path class="cls-5" d="M40.45,40.99c-.67,0-1.22-.26-1.53-.74l.49-.35c.25.35.65.52,1.08.52s.68-.15.68-.44-.3-.36-.84-.45c-.69-.12-1.24-.31-1.24-.99s.61-1,1.29-1,1.15.29,1.42.58l-.44.4c-.22-.25-.57-.41-.99-.41-.31,0-.62.11-.62.37,0,.29.35.35.78.43.7.13,1.31.31,1.31,1,0,.65-.53,1.08-1.41,1.08"/>
  <path class="cls-5" d="M45.19,37.62v3.3h-.69v-.48c-.27.35-.63.55-1.08.55-.72,0-1.14-.48-1.14-1.23v-2.15h.69v1.99c0,.35.11.75.65.75.49,0,.87-.35.87-.89v-1.85h.69Z"/>
  <path class="cls-5" d="M47.72,38.35c-.11-.06-.23-.1-.38-.1-.42,0-.79.36-.79.99v1.68h-.69v-3.3h.69v.53c.22-.35.55-.6.93-.6.18,0,.35.05.44.11l-.2.68Z"/>
  <path class="cls-5" d="M50.06,39.16c-.19.24-.47.24-.82.3-.35.06-.61.16-.61.5s.26.49.6.49c.43,0,.83-.23.83-.79v-.5ZM50.82,40.97c-.31,0-.59-.14-.66-.49-.27.39-.71.52-1.1.52-.68,0-1.13-.37-1.13-1.02,0-.82.72-.94,1.29-1.01.48-.05.84-.09.84-.41s-.36-.42-.67-.42c-.34,0-.72.11-1.03.33l-.28-.52c.41-.26.84-.4,1.36-.4.78,0,1.33.31,1.33,1.11v1.5c0,.21.07.3.23.3.06,0,.14-.01.18-.04l.08.48c-.11.06-.3.08-.43.08"/>
  <path class="cls-5" d="M51.54,40.92v-3.3h.69v.48c.27-.36.63-.56,1.08-.56.72,0,1.14.48,1.14,1.23v2.15h-.69v-1.99c0-.35-.11-.75-.65-.75-.49,0-.87.35-.87.89v1.85h-.69Z"/>
  <path class="cls-5" d="M57.88,40.26c-.28.41-.73.73-1.38.73-1.01,0-1.64-.74-1.64-1.72s.64-1.73,1.63-1.73c.63,0,1.08.3,1.36.73l-.52.37c-.17-.3-.45-.5-.81-.5-.58,0-.93.48-.93,1.11s.36,1.12.94,1.12c.38,0,.64-.2.82-.48l.52.36Z"/>
  <path class="cls-5" d="M60.59,38.94c-.05-.55-.43-.84-.9-.84-.52,0-.87.35-.91.84h1.82ZM61.27,39.44h-2.51c.03.6.43.94,1.01.94.39,0,.71-.15.95-.41l.45.43c-.35.36-.8.6-1.43.6-1.11,0-1.73-.73-1.73-1.71s.62-1.74,1.66-1.74,1.61.71,1.61,1.66c0,.1,0,.18-.01.24"/>
  <path class="cls-5" d="M64.84,37.38l-.68,1.85h1.34l-.66-1.85ZM66.1,40.92l-.4-1.07h-1.73l-.4,1.07h-.8l1.64-4.18h.87l1.64,4.18h-.82Z"/>
  <path class="cls-5" d="M70.02,37.62v3.3h-.69v-.48c-.27.35-.63.55-1.08.55-.72,0-1.14-.48-1.14-1.23v-2.15h.69v1.99c0,.35.11.75.65.75.49,0,.87-.35.87-.89v-1.85h.69Z"/>
  <path class="cls-5" d="M72.73,40.75c-.21.16-.46.25-.78.25-.4,0-.71-.13-.89-.42-.11-.17-.16-.37-.16-.69v-1.73h-.55v-.53h.55v-.89h.7v.89h1.02v.53h-1.02v1.73c0,.33.16.49.45.49.18,0,.32-.07.41-.14l.28.52Z"/>
  <path class="cls-5" d="M73.03,40.92v-4.49h.69v1.67c.27-.36.63-.56,1.08-.56.72,0,1.14.48,1.14,1.23v2.15h-.69v-1.99c0-.35-.11-.75-.65-.75-.49,0-.87.35-.87.89v1.85h-.69Z"/>
  <path class="cls-5" d="M78.04,38.15c-.6,0-.94.48-.94,1.12s.34,1.12.94,1.12.93-.48.93-1.12-.33-1.12-.93-1.12M78.04,40.99c-1.02,0-1.67-.72-1.67-1.72s.65-1.73,1.67-1.73,1.67.72,1.67,1.73-.65,1.72-1.67,1.72"/>
  <path class="cls-5" d="M82.03,38.35c-.11-.06-.23-.1-.38-.1-.42,0-.79.36-.79.99v1.68h-.69v-3.3h.69v.53c.22-.35.55-.6.93-.6.18,0,.35.05.44.11l-.2.68Z"/>
  <path class="cls-5" d="M82.47,40.92h.69v-3.3h-.69v3.3ZM82.47,37.08h.69v-.65h-.69v.65Z"/>
  <path class="cls-5" d="M85.88,40.75c-.21.16-.46.25-.78.25-.4,0-.71-.13-.89-.42-.11-.17-.16-.37-.16-.69v-1.73h-.55v-.53h.55v-.89h.7v.89h1.02v.53h-1.02v1.73c0,.33.16.49.45.49.18,0,.32-.07.41-.14l.28.52Z"/>
  <path class="cls-5" d="M87.8,41.05c-.26.68-.55,1.02-1.18,1.02-.29,0-.53-.08-.75-.23l.28-.49c.11.08.25.13.39.13.27,0,.4-.19.52-.43l.09-.18-1.38-3.25h.8l.94,2.38.84-2.38h.75l-1.31,3.43Z"/>
  <polygon class="cls-5" points="30.39 17.5 29.2 14.92 29.2 14.92 25.61 22.61 26.81 25.17 30.39 17.5"/>
  <polygon class="cls-3" points=".64 40.91 .64 40.91 12.76 14.92 19.93 14.92 7.81 40.91 .64 40.91"/>
  <path class="cls-2" d="M45.6,29.6l-6.85-14.68-3.58,7.69,3.26,6.99h7.17ZM31.59,14.92"/>
  <polygon class="cls-4" points="22.03 14.92 29.2 14.92 17.08 40.91 9.91 40.91 22.03 14.92"/>
  <polygon class="cls-1" points="31.59 14.92 38.76 14.92 26.64 40.91 19.47 40.91 31.59 14.92"/>
</svg>