<?xml version="1.0" encoding="UTF-8"?>
<svg xmlns="http://www.w3.org/2000/svg" xmlns:xlink="http://www.w3.org/1999/xlink" viewBox="0 0 71.46 57.6">
  <defs>
    <style>
      .cls-1 {
        fill: #80ba27;
      }

      .cls-1, .cls-2, .cls-3, .cls-4, .cls-5, .cls-6 {
        stroke-width: 0px;
      }

      .cls-7 {
        clip-path: url(#clippath);
      }

      .cls-2 {
        fill: none;
      }

      .cls-3 {
        fill: url(#linear-gradient);
      }

      .cls-8 {
        clip-path: url(#clippath-1);
      }

      .cls-9 {
        clip-path: url(#clippath-4);
      }

      .cls-10 {
        clip-path: url(#clippath-3);
      }

      .cls-11 {
        clip-path: url(#clippath-2);
      }

      .cls-12 {
        clip-path: url(#clippath-5);
      }

      .cls-4 {
        fill: #020303;
      }

      .cls-13 {
        opacity: .15;
      }

      .cls-14, .cls-15 {
        isolation: isolate;
      }

      .cls-5 {
        fill: #fff;
      }

      .cls-6 {
        fill: #a32b87;
      }

      .cls-15 {
        mix-blend-mode: multiply;
        opacity: .06;
      }
    </style>
    <clipPath id="clippath">
      <path class="cls-2" d="M20.33,16.66c0,8.94,7.25,16.19,16.19,16.19s16.19-7.25,16.19-16.19S45.47.47,36.53.47s-16.19,7.25-16.19,16.19"/>
    </clipPath>
    <linearGradient id="linear-gradient" x1="-475.17" y1="471.67" x2="-474.89" y2="471.67" gradientTransform="translate(-55546.42 55997.33) rotate(90) scale(117.84 -117.84)" gradientUnits="userSpaceOnUse">
      <stop offset="0" stop-color="#75bc6e"/>
      <stop offset=".45" stop-color="#39905b"/>
      <stop offset=".81" stop-color="#10724e"/>
      <stop offset="1" stop-color="#016749"/>
    </linearGradient>
    <clipPath id="clippath-1">
      <rect class="cls-2" x="17.8" width="37.63" height="57.6"/>
    </clipPath>
    <clipPath id="clippath-2">
      <rect class="cls-2" x="22.13" y="5.1" width="30.59" height="27.75"/>
    </clipPath>
    <clipPath id="clippath-3">
      <rect class="cls-2" x="22.13" y="5.1" width="30.59" height="27.75"/>
    </clipPath>
    <clipPath id="clippath-4">
      <rect class="cls-2" x="21.01" y="1.67" width="25.94" height="19.91"/>
    </clipPath>
    <clipPath id="clippath-5">
      <rect class="cls-2" x="21.01" y="1.67" width="25.94" height="19.91"/>
    </clipPath>
  </defs>
  <g class="cls-14">
    <g id="Layer_2" data-name="Layer 2">
      <g>
        <g class="cls-7">
          <rect class="cls-3" x="13.93" y="-5.93" width="45.18" height="45.18" transform="translate(-2.87 24.38) rotate(-35.6)"/>
        </g>
        <g class="cls-8">
          <g class="cls-15">
            <g class="cls-11">
              <g class="cls-10">
                <path class="cls-4" d="M47.87,5.1c1.14,2.22,1.79,4.74,1.79,7.41,0,8.94-7.25,16.19-16.19,16.19-4.42,0-8.42-1.77-11.34-4.64,2.69,5.22,8.13,8.78,14.4,8.78,8.94,0,16.19-7.25,16.19-16.19,0-4.53-1.86-8.62-4.85-11.55"/>
              </g>
            </g>
          </g>
          <g class="cls-13">
            <g class="cls-9">
              <g class="cls-12">
                <path class="cls-5" d="M43,3.67c-3.67-2.6-8.83-3.02-14.87.84,1.51,1.58,3.14,3.27,4.79,5.58,2.51-1.57,5.99-3.03,9.63-2.09.41-1.07.79-2.52.45-4.34"/>
                <path class="cls-5" d="M44.4,4.32c.53.44,1.6,1.1,2.44,2.03.33,1.12-.13,2.16-.59,2.62-.8-.38-1.63-.66-2.33-.68.45-1.11.59-2.95.49-3.97"/>
                <path class="cls-5" d="M21.28,15.04c.18.35.37,2.72,4.99,3.43.51,1.64.68,3.01.68,3.01,0,0-4.93.77-5.64-1.84-.67-2.5-.04-4.59-.04-4.59"/>
              </g>
            </g>
          </g>
          <path class="cls-5" d="M31.94,18.15c0,.39-.16.7-.59.7-.48,0-.61-.34-.61-.75v-1.59h-1.92v1.68c0,.39-.17.66-.59.66s-.61-.27-.61-.66v-4.05c0-.38.17-.72.6-.72.49,0,.6.39.6.79v1.3h1.92v-1.4c0-.39.17-.69.6-.69.47,0,.6.34.6.74v3.99Z"/>
          <path class="cls-5" d="M34.78,18.03c0,.43-.07.82-.59.82-.45,0-.62-.3-.62-.71v-3.97c0-.42.13-.76.61-.76.45,0,.6.35.6.74v3.89Z"/>
          <path class="cls-5" d="M39.75,17.83c.46,0,.56.33.56.49,0,.35-.26.48-.57.48h-2.76c-.41,0-.6-.2-.6-.59v-4.12c0-.44.17-.62.6-.62h2.74c.32,0,.56.15.56.5,0,.38-.29.48-.61.48h-2.09v1.08h1.89c.32,0,.62.1.62.48,0,.35-.26.48-.57.48h-1.93v1.35h2.17Z"/>
          <path class="cls-5" d="M44.36,15.69c.63.17,1.34.58,1.34,1.51,0,.74-.53,1.72-2.18,1.72s-2.29-.82-2.29-1.34c0-.37.3-.6.59-.6.25,0,.41.16.58.42.17.25.36.53,1.12.53.35,0,.93-.1.93-.63,0-.39-.3-.51-.75-.63l-.69-.18c-.77-.2-1.61-.54-1.61-1.53s.75-1.62,2.13-1.62,2.07.68,2.07,1.22c0,.36-.32.57-.6.57-.16,0-.31-.05-.45-.27-.21-.32-.45-.52-1-.52s-.91.2-.91.54.26.42.82.57l.89.24Z"/>
          <path class="cls-5" d="M29.95,20.51c.36,0,.67.1.87.43.04.07.1.19.1.27,0,.09-.09.14-.17.14-.07,0-.1-.03-.13-.09-.18-.35-.32-.47-.68-.47-.55,0-.75.46-.75.94s.22.91.76.91c.31,0,.55-.14.68-.45.03-.07.07-.11.15-.11s.17.04.17.13c0,.07-.07.21-.12.28-.21.31-.51.42-.88.42-.75,0-1.09-.46-1.09-1.18s.35-1.22,1.09-1.22"/>
          <path class="cls-5" d="M31.97,22.91c-.68,0-.8-.54-.8-.89,0-.52.27-.88.83-.88s.81.36.81.87c0,.31-.09.9-.83.9M31.98,21.39c-.38,0-.5.31-.5.64s.12.64.51.64.5-.33.5-.66-.15-.62-.51-.62"/>
          <path class="cls-5" d="M34.58,22.75c0,.1-.05.15-.16.15-.09,0-.15-.06-.15-.15v-.89c0-.22-.01-.47-.33-.47-.35,0-.47.27-.47.54v.81c0,.1-.06.15-.16.15-.09,0-.15-.05-.15-.14v-1.47c0-.09.07-.14.15-.14.1,0,.15.05.15.16v.08c.13-.18.31-.25.53-.25.49,0,.57.34.57.63v.98Z"/>
          <path class="cls-5" d="M35.6,22.91c-.1,0-.33,0-.5-.15-.15-.13-.18-.31-.18-.36,0-.11.11-.14.16-.14.07,0,.1.04.11.07.04.09.08.34.43.34.2,0,.34-.1.34-.26,0-.17-.15-.21-.32-.26l-.19-.06c-.35-.1-.46-.27-.46-.47,0-.09.03-.49.6-.49s.65.38.65.45c0,.1-.09.13-.14.13-.07,0-.09-.04-.14-.13-.03-.06-.12-.21-.38-.21-.2,0-.29.11-.29.22,0,.15.13.19.28.24l.21.07c.43.13.48.32.48.5,0,.29-.2.52-.66.52"/>
          <path class="cls-5" d="M38.02,22.76c0,.09-.06.15-.15.15-.13,0-.15-.09-.15-.19v-.05c-.14.19-.29.25-.53.25-.43,0-.58-.28-.58-.64v-.97c0-.1.07-.15.15-.15.1,0,.16.05.16.15v.84c0,.28.01.52.32.52s.47-.22.47-.52v-.84c0-.1.07-.15.15-.15.1,0,.16.05.16.15v1.46Z"/>
          <path class="cls-5" d="M38.47,21.29c0-.1.07-.14.16-.14s.15.04.15.16v.06c.12-.16.28-.23.48-.23.21,0,.38.08.48.27.15-.17.3-.27.53-.27.42,0,.57.22.57.61v1.01c0,.09-.06.15-.16.15-.08,0-.15-.04-.15-.15v-.95c0-.22-.06-.4-.31-.4s-.41.19-.41.44v.91c0,.09-.07.15-.16.15-.1,0-.15-.06-.15-.15v-.9c0-.22-.02-.45-.3-.45-.39,0-.42.38-.42.53v.83c0,.09-.06.15-.15.15s-.16-.04-.16-.15v-1.46Z"/>
          <path class="cls-5" d="M41.53,22.11c0,.1.02.26.13.39.11.13.23.16.38.16.24,0,.36-.13.41-.23.05-.09.07-.12.14-.12.08,0,.17.05.17.14,0,.05-.05.14-.09.19-.16.19-.39.27-.63.27-.23,0-.44-.05-.6-.23-.2-.22-.22-.54-.22-.63,0-.5.27-.92.81-.92.6,0,.76.49.76.82,0,.1-.06.15-.15.15h-1.11ZM42.47,21.86c-.02-.26-.17-.46-.45-.46-.3,0-.45.19-.5.46h.94Z"/>
          <path class="cls-5" d="M43.15,21.29c0-.09.06-.14.15-.14.11,0,.14.08.14.16v.15c.07-.2.25-.31.45-.31.1,0,.18.04.18.15,0,.12-.08.13-.18.15-.36.06-.43.32-.43.61v.71c0,.1-.06.14-.15.14-.09,0-.15-.04-.15-.14v-1.47Z"/>
          <path class="cls-5" d="M33.63,23.39c.36,0,.67.1.87.43.04.07.1.19.1.27,0,.09-.09.14-.17.14-.07,0-.1-.03-.13-.09-.18-.35-.32-.47-.68-.47-.55,0-.75.46-.75.94s.22.91.76.91c.31,0,.55-.14.68-.45.03-.07.07-.11.15-.11s.17.04.17.13c0,.07-.07.21-.12.28-.21.31-.51.42-.88.42-.75,0-1.09-.46-1.09-1.18s.35-1.22,1.09-1.22"/>
          <path class="cls-5" d="M35.65,25.79c-.68,0-.8-.54-.8-.89,0-.52.27-.88.83-.88s.81.36.81.87c0,.31-.09.91-.83.91M35.66,24.27c-.38,0-.5.31-.5.64s.12.64.51.64.5-.33.5-.66-.15-.62-.51-.62"/>
          <path class="cls-5" d="M38.33,25.64c0,.09-.06.14-.15.14-.1,0-.14-.07-.14-.15v-.07c-.12.16-.32.24-.52.24-.53,0-.74-.44-.74-.91,0-.44.21-.87.71-.87.22,0,.42.07.55.25v-.71c0-.1.06-.15.15-.15s.15.05.15.14v2.09ZM37.54,24.27c-.37,0-.46.34-.46.65,0,.32.1.62.47.62.35,0,.48-.31.48-.61,0-.33-.1-.66-.49-.66"/>
          <path class="cls-5" d="M39.01,24.99c0,.1.02.26.13.39.11.13.23.16.38.16.24,0,.36-.13.41-.23.05-.09.07-.12.14-.12.08,0,.17.05.17.14,0,.05-.05.14-.09.19-.16.19-.39.27-.63.27-.23,0-.44-.05-.6-.23-.2-.22-.22-.54-.22-.63,0-.5.27-.92.81-.92.6,0,.76.49.76.82,0,.1-.06.15-.15.15h-1.11ZM39.96,24.74c-.02-.26-.17-.46-.45-.46-.3,0-.45.19-.5.46h.94Z"/>
          <path class="cls-1" d="M22,51.55l-.48,1.37h.95l-.47-1.37ZM22.81,53.94l-.21-.62h-1.22l-.21.62h-.5l1.13-3.08h.38l1.13,3.08h-.5Z"/>
          <path class="cls-1" d="M24.73,51.28h-.67v1.03h.67c.32,0,.54-.19.54-.51s-.22-.51-.54-.51M24.76,52.72h-.7v1.21h-.47v-3.08h1.17c.6,0,.99.4.99.93s-.38.93-.99.93"/>
          <path class="cls-1" d="M27.3,51.28h-.67v1.03h.67c.32,0,.54-.19.54-.51s-.22-.51-.54-.51M27.33,52.72h-.7v1.21h-.47v-3.08h1.17c.6,0,.99.4.99.93s-.38.93-.99.93"/>
          <path class="cls-1" d="M29.89,51.28h-.69v.96h.69c.31,0,.52-.18.52-.48s-.21-.48-.52-.48M30.43,53.94l-.65-1.3h-.58v1.3h-.47v-3.08h1.19c.58,0,.96.38.96.9,0,.44-.27.72-.61.82l.71,1.36h-.54Z"/>
          <path class="cls-1" d="M32.87,51.44c-.11-.12-.28-.19-.46-.19s-.35.07-.46.19c-.15.16-.18.34-.18.96s.03.79.18.96c.11.12.28.19.46.19s.35-.07.46-.19c.15-.16.18-.34.18-.96s-.03-.79-.18-.96M33.22,53.63c-.21.21-.48.33-.81.33s-.6-.12-.81-.33c-.3-.3-.3-.64-.3-1.24s0-.93.3-1.24c.21-.21.48-.33.81-.33s.6.12.81.33c.3.3.29.64.29,1.24s0,.93-.29,1.24"/>
          <polygon class="cls-1" points="35.01 53.94 34.64 53.94 33.63 50.86 34.12 50.86 34.83 53.1 35.54 50.86 36.03 50.86 35.01 53.94"/>
          <polygon class="cls-1" points="36.3 53.94 36.3 50.86 38.27 50.86 38.27 51.28 36.77 51.28 36.77 52.18 38.05 52.18 38.05 52.59 36.77 52.59 36.77 53.52 38.27 53.52 38.27 53.94 36.3 53.94"/>
          <path class="cls-1" d="M40.32,51.48c-.13-.14-.3-.21-.52-.21h-.57v2.24h.57c.22,0,.39-.06.52-.21.16-.18.16-.51.16-.93s0-.71-.16-.89M40.64,53.65c-.19.19-.48.29-.8.29h-1.08v-3.08h1.08c.32,0,.6.1.8.29.33.33.31.78.31,1.23s.02.94-.31,1.27"/>
          <path class="cls-1" d="M43.13,53.96c-.32,0-.6-.12-.81-.33-.3-.3-.3-.64-.3-1.24s0-.93.3-1.24c.21-.21.49-.33.81-.33.57,0,.99.33,1.1.95h-.48c-.07-.31-.28-.53-.62-.53-.18,0-.35.07-.45.19-.15.16-.19.34-.19.96s.03.8.19.96c.11.12.27.19.45.19.34,0,.55-.22.63-.53h.47c-.1.61-.54.95-1.1.95"/>
          <path class="cls-1" d="M46.16,51.44c-.11-.12-.28-.19-.46-.19s-.35.07-.46.19c-.15.16-.18.34-.18.96s.03.79.18.96c.11.12.28.19.46.19s.35-.07.46-.19c.15-.16.18-.34.18-.96s-.03-.79-.18-.96M46.51,53.63c-.21.21-.48.33-.81.33s-.6-.12-.81-.33c-.3-.3-.3-.64-.3-1.24s0-.93.3-1.24c.21-.21.48-.33.81-.33s.6.12.81.33c.3.3.29.64.29,1.24s0,.93-.29,1.24"/>
          <path class="cls-1" d="M48.9,51.48c-.13-.14-.3-.21-.52-.21h-.57v2.24h.57c.22,0,.39-.06.52-.21.16-.18.16-.51.16-.93s0-.71-.16-.89M49.22,53.65c-.19.19-.48.29-.8.29h-1.08v-3.08h1.08c.32,0,.6.1.8.29.33.33.31.78.31,1.23s.02.94-.31,1.27"/>
          <polygon class="cls-1" points="50.07 53.94 50.07 50.86 52.04 50.86 52.04 51.28 50.54 51.28 50.54 52.18 51.82 52.18 51.82 52.59 50.54 52.59 50.54 53.52 52.04 53.52 52.04 53.94 50.07 53.94"/>
          <polygon class="cls-6" points="21.48 55.5 21.48 57.22 21.18 57.22 21.18 55.5 20.63 55.5 20.63 55.22 22.03 55.22 22.03 55.5 21.48 55.5"/>
          <path class="cls-6" d="M23.1,55.5h-.45v.63h.45c.2,0,.34-.12.34-.31s-.14-.31-.34-.31M23.45,57.23l-.42-.84h-.38v.84h-.3v-2h.78c.38,0,.62.24.62.58,0,.29-.17.47-.4.53l.46.89h-.35Z"/>
          <path class="cls-6" d="M24.79,55.68l-.31.89h.62l-.3-.89ZM25.31,57.23l-.14-.4h-.79l-.14.4h-.32l.73-2h.24l.73,2h-.32Z"/>
          <path class="cls-6" d="M26.91,55.63c-.09-.09-.2-.13-.34-.13h-.37v1.46h.37c.14,0,.26-.04.34-.13.1-.12.11-.33.11-.61s0-.46-.11-.58M27.11,57.04c-.13.13-.31.19-.52.19h-.7v-2h.7c.21,0,.39.06.52.19.22.22.2.51.2.8s.01.61-.2.83"/>
          <rect class="cls-6" x="27.74" y="55.22" width=".3" height="2"/>
          <polygon class="cls-6" points="29.77 57.23 28.84 55.82 28.84 57.23 28.54 57.23 28.54 55.22 28.81 55.22 29.74 56.63 29.74 55.22 30.04 55.22 30.04 57.23 29.77 57.23"/>
          <path class="cls-6" d="M31.74,57.01c-.15.16-.34.23-.55.23s-.39-.08-.53-.21c-.2-.2-.19-.42-.19-.8s0-.61.19-.8c.14-.14.31-.21.53-.21.42,0,.67.28.73.62h-.31c-.05-.22-.2-.35-.42-.35-.12,0-.23.05-.3.12-.1.11-.12.22-.12.62s.02.52.12.62c.07.08.18.12.3.12.13,0,.25-.05.33-.14.07-.08.1-.19.1-.32v-.11h-.43v-.26h.73v.31c0,.26-.05.43-.18.57"/>
          <path class="cls-6" d="M32.94,57.24c-.3,0-.52-.07-.71-.26l.2-.2c.15.15.31.19.51.19.26,0,.41-.11.41-.31,0-.09-.02-.16-.08-.21-.05-.05-.1-.07-.22-.08l-.24-.03c-.16-.02-.29-.08-.38-.16-.1-.09-.15-.22-.15-.38,0-.35.25-.59.67-.59.26,0,.45.07.62.23l-.19.19c-.12-.12-.27-.15-.44-.15-.24,0-.37.14-.37.31,0,.07.02.14.08.19.05.04.13.08.22.09l.23.03c.19.03.29.07.37.15.11.1.16.24.16.41,0,.37-.3.59-.72.59"/>
          <polygon class="cls-6" points="34.72 55.5 34.72 57.22 34.41 57.22 34.41 55.5 33.86 55.5 33.86 55.22 35.27 55.22 35.27 55.5 34.72 55.5"/>
          <path class="cls-6" d="M36.04,55.68l-.31.89h.62l-.3-.89ZM36.57,57.23l-.14-.4h-.79l-.14.4h-.32l.73-2h.24l.73,2h-.32Z"/>
          <polygon class="cls-6" points="38.38 57.23 37.45 55.82 37.45 57.23 37.15 57.23 37.15 55.22 37.43 55.22 38.35 56.63 38.35 55.22 38.66 55.22 38.66 57.23 38.38 57.23"/>
          <path class="cls-6" d="M40.16,55.63c-.08-.09-.2-.13-.34-.13h-.37v1.46h.37c.14,0,.26-.04.34-.13.1-.12.11-.33.11-.61s0-.46-.11-.58M40.37,57.04c-.13.13-.31.19-.52.19h-.7v-2h.7c.21,0,.39.06.52.19.22.22.2.51.2.8s.01.61-.2.83"/>
          <path class="cls-6" d="M41.59,55.68l-.31.89h.62l-.3-.89ZM42.12,57.23l-.14-.4h-.79l-.14.4h-.32l.73-2h.25l.73,2h-.32Z"/>
          <path class="cls-6" d="M43.45,55.5h-.45v.63h.45c.2,0,.34-.12.34-.31s-.14-.31-.34-.31M43.8,57.23l-.42-.84h-.38v.84h-.3v-2h.78c.38,0,.62.24.62.58,0,.29-.17.47-.4.53l.46.89h-.35Z"/>
          <path class="cls-6" d="M45.52,55.63c-.08-.09-.2-.13-.34-.13h-.37v1.46h.37c.14,0,.26-.04.34-.13.1-.12.11-.33.11-.61s0-.46-.11-.58M45.73,57.04c-.13.13-.31.19-.52.19h-.7v-2h.7c.21,0,.39.06.52.19.22.22.2.51.2.8s.01.61-.2.83"/>
          <path class="cls-6" d="M46.89,57.24c-.3,0-.52-.07-.71-.26l.2-.2c.15.15.31.19.51.19.26,0,.41-.11.41-.31,0-.09-.03-.16-.08-.21-.05-.05-.1-.07-.22-.08l-.24-.03c-.16-.02-.29-.08-.38-.16-.1-.09-.15-.22-.15-.38,0-.35.25-.59.67-.59.27,0,.45.07.62.23l-.19.19c-.12-.12-.27-.15-.44-.15-.24,0-.37.14-.37.31,0,.07.02.14.08.19.05.04.13.08.22.09l.23.03c.19.03.29.07.37.15.11.1.16.24.16.41,0,.37-.3.59-.72.59"/>
          <rect class="cls-6" x="47.94" y="56.88" width=".34" height=".34"/>
          <path class="cls-6" d="M36.53,47.3c6.93,0,13.37,1.38,18.73,3.76l-18.73-12.44-18.73,12.44c5.36-2.37,11.8-3.76,18.73-3.76"/>
          <path class="cls-5" d="M37.92,40.99c-.29-.65-.65-1.22-1.04-1.71.27.39.52.83.73,1.3,1.11,2.45.87,4.94-.54,5.58-1.16.52-2.82-.36-3.99-2.05,1.17,1.96,3.01,3.04,4.28,2.47,1.43-.64,1.66-3.13.56-5.59"/>
          <path class="cls-5" d="M34.74,41.86h.02c-.02.2-.02.4-.03.6.06,0,.24,0,.43-.01,0,.03,0,.06,0,.09s0,.06,0,.09c-.14,0-.33,0-.43,0,0,.04-.03.68-.03,1.03,0,.3,0,.61.33.61.04,0,.13-.01.18-.03v.1c-.09.03-.21.06-.31.06-.34,0-.5-.19-.5-.51,0-.3.02-.66.03-1.26-.08,0-.17,0-.28,0,0-.03,0-.06,0-.09,0-.03,0-.05,0-.08.12,0,.21.01.27.01,0-.11,0-.28-.02-.45l.34-.14Z"/>
          <path class="cls-5" d="M35.49,43.95c.06.11.23.28.46.28.2,0,.39-.13.39-.36,0-.5-.96-.21-.96-.89,0-.35.24-.61.67-.61.2,0,.32.07.45.11-.04.08-.09.23-.1.29h-.05c-.04-.13-.17-.25-.36-.25-.16,0-.34.1-.34.34,0,.53.96.2.96.89,0,.31-.28.64-.73.64-.25,0-.41-.07-.52-.13.03-.07.08-.22.08-.3h.05Z"/>
          <path class="cls-5" d="M36.94,43.16c0-.24,0-.53-.03-.76.06.01.12.02.18.02s.12,0,.18-.02c-.02.23-.03.51-.03.76v.42c0,.24,0,.53.03.76-.06-.01-.12-.02-.18-.02s-.12,0-.18.02c.02-.23.03-.52.03-.76v-.42ZM37.09,41.49c.11,0,.21.09.21.21s-.09.21-.21.21-.21-.09-.21-.21.09-.21.21-.21"/>
          <polygon class="cls-1" points="52.5 51.05 52.5 50.64 52.34 50.64 52.34 50.58 52.71 50.58 52.71 50.64 52.56 50.64 52.56 51.05 52.5 51.05"/>
          <path class="cls-1" d="M52.78,51.05v-.47h.09l.11.33s.02.05.02.07c0-.02.01-.04.03-.08l.11-.33h.08v.47h-.06v-.39l-.14.39h-.06l-.14-.4v.4h-.06Z"/>
          <path class="cls-6" d="M49.3,57.24c-.41,0-.72-.28-.72-.69v-1.33h.3v1.31c0,.27.16.43.41.43s.42-.17.42-.43v-1.31h.3v1.33c0,.41-.31.69-.72.69"/>
          <polygon class="cls-6" points="51.68 57.23 51.12 56.24 50.78 56.64 50.78 57.23 50.48 57.23 50.48 55.22 50.78 55.22 50.78 56.23 51.6 55.22 51.97 55.22 51.32 56.01 52.04 57.23 51.68 57.23"/>
        </g>
      </g>
    </g>
  </g>
</svg>