<?xml version="1.0" encoding="UTF-8"?>
<svg id="Layer_1" data-name="Layer 1" xmlns="http://www.w3.org/2000/svg" xmlns:xlink="http://www.w3.org/1999/xlink" viewBox="0 0 71.46 57.6">
  <defs>
    <style>
      .cls-1 {
        clip-path: url(#clippath);
      }

      .cls-2 {
        fill: none;
      }

      .cls-2, .cls-3, .cls-4, .cls-5, .cls-6, .cls-7, .cls-8 {
        stroke-width: 0px;
      }

      .cls-3 {
        fill: url(#linear-gradient);
      }

      .cls-9 {
        clip-path: url(#clippath-1);
      }

      .cls-10 {
        clip-path: url(#clippath-2);
      }

      .cls-4 {
        fill: #e94e1b;
        fill-rule: evenodd;
      }

      .cls-5 {
        fill: #6a6d71;
      }

      .cls-6 {
        fill: url(#linear-gradient-2);
      }

      .cls-7 {
        fill: url(#linear-gradient-3);
      }

      .cls-8 {
        fill: #fff;
      }
    </style>
    <clipPath id="clippath">
      <polygon class="cls-2" points="25.73 38.65 24.76 44.3 66.7 44.3 66.7 38.65 25.73 38.65"/>
    </clipPath>
    <linearGradient id="linear-gradient" x1="43.12" y1="230.47" x2="43.42" y2="230.47" gradientTransform="translate(-5992.19 32201.03) scale(139.54 -139.54)" gradientUnits="userSpaceOnUse">
      <stop offset="0" stop-color="#9fc63b"/>
      <stop offset="1" stop-color="#349839"/>
    </linearGradient>
    <clipPath id="clippath-1">
      <path class="cls-2" d="M7.33,34.92c.5,1.18,1.51,1.92,2.74,2.17,3.39.69,7.05-2.52,8.32-5.85h-3.62c-.85,1.67-2.68,2.9-4.48,2.9-1.67,0-3.29-2.19-3.46-3.67-.38,1.13.06,3.44.49,4.45"/>
    </clipPath>
    <linearGradient id="linear-gradient-2" x1="42.21" y1="233" x2="42.52" y2="233" gradientTransform="translate(-1636.5 9103.71) scale(38.92 -38.92)" gradientUnits="userSpaceOnUse">
      <stop offset="0" stop-color="#3d3c3c"/>
      <stop offset="1" stop-color="#838383"/>
    </linearGradient>
    <clipPath id="clippath-2">
      <path class="cls-2" d="M7.73,36.38s0,0,0,0c0,0,0,0,0,0M6.88,23.26c-1.28,1.02-2.19,2.17-2.8,3.5-1.61,3.5-.18,7.6,3.64,9.63-.49-.26-1.3-1.76-1.48-3.8h0s0-.02,0-.04c-.02-.27-.04-.55-.04-.83,0-.59.02-1.34.17-1.88.85.43,1.76.84,4.31.91h0c.33,0,.68,0,1.06-.03,5.49-.38,7.55-3.98,7.55-3.98h-3.68s-3.31,2.7-8.28.41c0,0,.11-.18.26-.41.13-.21.26-.4.4-.59.11-.15.22-.3.31-.4h0c.57-.69,1.14-1.19,1.55-1.51,0,0,0,0,.01-.01.11-.09.22-.17.3-.23.01,0,.03-.02.04-.03.16-.11.26-.17.26-.17h0c.72-.44,1.53-.71,2.46-.77.44-.02.84.07,1.2.21-.7-.92-1.83-1.48-3.24-1.48s-2.85.58-4.02,1.51"/>
    </clipPath>
    <linearGradient id="linear-gradient-3" x1="42.8" y1="231.83" x2="43.1" y2="231.83" gradientTransform="translate(-2255.11 12263.19) scale(52.77 -52.77)" xlink:href="#linear-gradient"/>
  </defs>
  <g class="cls-1">
    <rect class="cls-3" x="24.76" y="38.65" width="41.94" height="5.64"/>
  </g>
  <path class="cls-4" d="M16.59,20.64c1.97,1.06,3.05,3.2,2.73,5.75h-3.62c.27-2.91-1.58-5.19-4.79-5.19-.88,0-1.77.19-2.62.52,2.69-1.91,5.98-2.33,8.29-1.09"/>
  <g class="cls-9">
    <rect class="cls-6" x="6.46" y="30.47" width="11.94" height="7.3"/>
  </g>
  <g class="cls-10">
    <rect class="cls-7" x="2.47" y="21.75" width="16.82" height="14.63"/>
  </g>
  <g>
    <path class="cls-5" d="M22.89,44.3h-3.86l4.37-23.62h3.55l-.21,1.13c-.09.58-.31,1.13-.31,1.13h.06c1.07-1.5,2.94-2.63,5.15-2.63,3.71,0,5.91,2.57,5.91,6.59,0,5.79-4.23,9.77-8.51,9.77-1.87,0-3.55-.74-4.44-2.3h-.06s-.03.61-.18,1.41l-1.46,8.52ZM28.57,33.39c2.36,0,5.02-2.3,5.02-6.22,0-2.17-1.16-3.52-3.09-3.52-2.54,0-4.99,2.82-4.99,6.22,0,1.93.95,3.52,3.06,3.52"/>
    <path class="cls-5" d="M39.97,20.68h3.86l1.35,9.71c.09.58.12,2.36.12,2.36h.06s.52-1.44,1.01-2.36l5.12-9.71h4.13l-8.64,15.62h-4.41l-2.6-15.62Z"/>
    <path class="cls-5" d="M55.99,31.89s1.56,1.56,4.17,1.56c1.19,0,2.54-.55,2.54-1.68,0-1.99-6.55-1.96-6.55-6.52,0-3.06,3.09-4.93,6.19-4.93,3.55,0,5.42,1.78,5.42,1.78l-1.78,2.66s-1.23-1.23-3.64-1.23c-1.13,0-2.54.49-2.54,1.68,0,1.9,6.59,1.9,6.59,6.55,0,2.91-2.66,4.9-6.22,4.9-3.89,0-6.19-2.27-6.19-2.27l2.02-2.51Z"/>
  </g>
  <path class="cls-8" d="M44.48,42.37c0,.08.02.15.07.19.04.04.1.06.18.06s.14-.02.18-.06c.05-.04.07-.11.07-.19v-.06l.32-.08v.15c0,.09-.01.17-.04.24-.03.07-.07.13-.13.18-.05.05-.11.09-.19.12-.07.03-.15.04-.23.04-.08,0-.15-.01-.22-.04-.07-.03-.13-.07-.18-.12-.05-.05-.09-.11-.12-.18-.03-.07-.04-.15-.04-.24v-1.88c0-.09.01-.17.04-.24.03-.07.07-.13.12-.18.05-.05.11-.09.19-.11.07-.03.15-.04.24-.04.18,0,.31.05.42.15.1.1.15.25.15.43v.1h-.32v-.09c0-.09-.02-.15-.06-.19-.04-.04-.1-.07-.18-.07s-.14.02-.19.07c-.05.04-.07.1-.07.19v1.86Z"/>
  <polygon class="cls-8" points="46.58 39.98 46.58 40.31 45.96 40.31 45.96 41.23 46.4 41.23 46.4 41.56 45.96 41.56 45.96 42.58 46.58 42.58 46.58 42.91 45.61 42.91 45.61 39.98 46.58 39.98"/>
  <path class="cls-8" d="M47.49,39.98c.18,0,.32.05.42.15.1.1.16.24.16.43v.41c0,.11-.02.21-.05.27s-.09.11-.15.14c.07.03.13.08.17.14.04.07.06.16.06.28v1.1h-.34v-1.11c0-.09-.02-.16-.05-.2-.03-.04-.11-.06-.21-.06h-.25v1.37h-.34v-2.93h.6ZM47.24,41.25h.23c.1,0,.17-.02.21-.06.04-.04.06-.11.06-.2v-.38c0-.2-.09-.3-.27-.3h-.23v.94Z"/>
  <polygon class="cls-8" points="49.3 39.98 49.3 40.31 48.97 40.31 48.97 42.91 48.62 42.91 48.62 40.31 48.29 40.31 48.29 39.98 49.3 39.98"/>
  <rect class="cls-8" x="49.58" y="39.98" width=".34" height="2.93"/>
  <polygon class="cls-8" points="51.32 39.98 51.32 40.31 50.65 40.31 50.65 41.33 51.14 41.33 51.14 41.66 50.65 41.66 50.65 42.91 50.31 42.91 50.31 39.98 51.32 39.98"/>
  <rect class="cls-8" x="51.6" y="39.98" width=".34" height="2.93"/>
  <polygon class="cls-8" points="53.3 39.98 53.3 40.31 52.67 40.31 52.67 41.23 53.11 41.23 53.11 41.56 52.67 41.56 52.67 42.58 53.3 42.58 53.3 42.91 52.33 42.91 52.33 39.98 53.3 39.98"/>
  <path class="cls-8" d="M54.22,39.97c.18,0,.32.05.43.16.1.11.16.28.16.51v1.59c0,.23-.05.4-.16.51-.11.11-.25.17-.43.17h-.61v-2.93h.61ZM53.96,42.57h.24c.18,0,.27-.11.27-.32v-1.63c0-.21-.09-.32-.27-.32h-.24v2.27Z"/>
  <polygon class="cls-8" points="56.27 39.98 56.73 42.3 57.21 39.98 57.56 39.98 57.56 42.91 57.25 42.91 57.25 41.02 56.89 42.91 56.57 42.91 56.21 40.99 56.21 42.91 55.9 42.91 55.9 39.98 56.27 39.98"/>
  <polygon class="cls-8" points="58.91 39.98 58.91 40.31 58.29 40.31 58.29 41.23 58.73 41.23 58.73 41.56 58.29 41.56 58.29 42.58 58.91 42.58 58.91 42.91 57.94 42.91 57.94 39.98 58.91 39.98"/>
  <polygon class="cls-8" points="59.6 39.98 60.06 42.3 60.54 39.98 60.88 39.98 60.88 42.91 60.58 42.91 60.58 41.02 60.22 42.91 59.9 42.91 59.53 40.99 59.53 42.91 59.23 42.91 59.23 39.98 59.6 39.98"/>
  <path class="cls-8" d="M61.86,39.98c.18,0,.32.05.42.15.1.1.16.25.16.43v.41c0,.12-.02.21-.05.28-.03.07-.09.11-.16.14.08.03.14.08.18.15.04.07.06.17.06.3v.47c0,.19-.05.34-.16.45-.1.1-.25.16-.43.16h-.62v-2.93h.6ZM61.6,41.25h.24c.09,0,.16-.02.2-.06.04-.04.06-.11.06-.21v-.38c0-.09-.02-.16-.06-.22-.04-.05-.11-.08-.21-.08h-.23v.95ZM61.6,42.58h.26c.18,0,.27-.1.27-.3v-.45c0-.1-.02-.18-.06-.22-.04-.04-.11-.07-.21-.07h-.26v1.04Z"/>
  <polygon class="cls-8" points="63.78 39.98 63.78 40.31 63.15 40.31 63.15 41.23 63.59 41.23 63.59 41.56 63.15 41.56 63.15 42.58 63.78 42.58 63.78 42.91 62.81 42.91 62.81 39.98 63.78 39.98"/>
  <path class="cls-8" d="M64.69,39.98c.18,0,.32.05.42.15.11.1.16.24.16.43v.41c0,.11-.02.21-.05.27s-.09.11-.15.14c.07.03.13.08.17.14.04.07.06.16.06.28v1.1h-.34v-1.11c0-.09-.02-.16-.05-.2-.04-.04-.11-.06-.21-.06h-.26v1.37h-.34v-2.93h.6ZM64.43,41.25h.23c.1,0,.17-.02.21-.06.04-.04.06-.11.06-.2v-.38c0-.2-.09-.3-.27-.3h-.23v.94Z"/>
</svg>